<?xml version="1.0" encoding="UTF-8" standalone="no"?>
<!DOCTYPE svg PUBLIC "-//W3C//DTD SVG 1.1//EN"
 "http://www.w3.org/Graphics/SVG/1.1/DTD/svg11.dtd">
<!-- Generated by graphviz version 2.43.0 (0)
 -->
<!-- Title: dependency&#45;cruiser output Pages: 1 -->
<svg width="443pt" height="354pt"
 viewBox="0.00 0.00 443.00 354.00" xmlns="http://www.w3.org/2000/svg" xmlns:xlink="http://www.w3.org/1999/xlink">
<g id="graph0" class="graph" transform="scale(1 1) rotate(0) translate(4 350)">
<title>dependency&#45;cruiser output</title>
<polygon fill="white" stroke="transparent" points="-4,4 -4,-350 439,-350 439,4 -4,4"/>
<g id="clust1" class="cluster">
<title>cluster_src</title>
<path fill="#ffffff" stroke="black" stroke-width="2" d="M20,-8C20,-8 415,-8 415,-8 421,-8 427,-14 427,-20 427,-20 427,-326 427,-326 427,-332 421,-338 415,-338 415,-338 20,-338 20,-338 14,-338 8,-332 8,-326 8,-326 8,-20 8,-20 8,-14 14,-8 20,-8"/>
<text text-anchor="middle" x="217.5" y="-326.8" font-family="Helvetica,sans-Serif" font-weight="bold" font-size="9.00">src</text>
</g>
<g id="clust2" class="cluster">
<title>cluster_src/pages</title>
<path fill="#ffffff" stroke="black" stroke-width="2" d="M28,-16C28,-16 106,-16 106,-16 112,-16 118,-22 118,-28 118,-28 118,-300 118,-300 118,-306 112,-312 106,-312 106,-312 28,-312 28,-312 22,-312 16,-306 16,-300 16,-300 16,-28 16,-28 16,-22 22,-16 28,-16"/>
<text text-anchor="middle" x="67" y="-300.8" font-family="Helvetica,sans-Serif" font-weight="bold" font-size="9.00">pages</text>
</g>
<g id="clust3" class="cluster">
<title>cluster_src/pages/api</title>
<path fill="#ffffff" stroke="black" stroke-width="2" d="M36,-110C36,-110 98,-110 98,-110 104,-110 110,-116 110,-122 110,-122 110,-274 110,-274 110,-280 104,-286 98,-286 98,-286 36,-286 36,-286 30,-286 24,-280 24,-274 24,-274 24,-122 24,-122 24,-116 30,-110 36,-110"/>
<text text-anchor="middle" x="67" y="-274.8" font-family="Helvetica,sans-Serif" font-weight="bold" font-size="9.00">api</text>
</g>
<g id="clust4" class="cluster">
<title>cluster_src/pages/api/auth</title>
<path fill="#ffffff" stroke="black" stroke-width="2" d="M44,-208C44,-208 90,-208 90,-208 96,-208 102,-214 102,-220 102,-220 102,-248 102,-248 102,-254 96,-260 90,-260 90,-260 44,-260 44,-260 38,-260 32,-254 32,-248 32,-248 32,-220 32,-220 32,-214 38,-208 44,-208"/>
<text text-anchor="middle" x="67" y="-248.8" font-family="Helvetica,sans-Serif" font-weight="bold" font-size="9.00">auth</text>
</g>
<g id="clust5" class="cluster">
<title>cluster_src/pages/api/items</title>
<path fill="#ffffff" stroke="black" stroke-width="2" d="M44,-118C44,-118 90,-118 90,-118 96,-118 102,-124 102,-130 102,-130 102,-188 102,-188 102,-194 96,-200 90,-200 90,-200 44,-200 44,-200 38,-200 32,-194 32,-188 32,-188 32,-130 32,-130 32,-124 38,-118 44,-118"/>
<text text-anchor="middle" x="67" y="-188.8" font-family="Helvetica,sans-Serif" font-weight="bold" font-size="9.00">items</text>
</g>
<g id="clust6" class="cluster">
<title>cluster_src/services</title>
<path fill="#ffffff" stroke="black" stroke-width="2" d="M138,-76C138,-76 407,-76 407,-76 413,-76 419,-82 419,-88 419,-88 419,-130 419,-130 419,-136 413,-142 407,-142 407,-142 138,-142 138,-142 132,-142 126,-136 126,-130 126,-130 126,-88 126,-88 126,-82 132,-76 138,-76"/>
<text text-anchor="middle" x="272.5" y="-130.8" font-family="Helvetica,sans-Serif" font-weight="bold" font-size="9.00">services</text>
</g>
<g id="clust7" class="cluster">
<title>cluster_src/styles</title>
<path fill="#ffffff" stroke="black" stroke-width="2" d="M142,-16C142,-16 224,-16 224,-16 230,-16 236,-22 236,-28 236,-28 236,-56 236,-56 236,-62 230,-68 224,-68 224,-68 142,-68 142,-68 136,-68 130,-62 130,-56 130,-56 130,-28 130,-28 130,-22 136,-16 142,-16"/>
<text text-anchor="middle" x="183" y="-56.8" font-family="Helvetica,sans-Serif" font-weight="bold" font-size="9.00">styles</text>
</g>
<!-- src/pages/_app.tsx -->
<g id="node1" class="node">
<title>src/pages/_app.tsx</title>
<g id="a_node1"><a xlink:href="src/pages/_app.tsx" xlink:title="no&#45;orphans">
<path fill="#ccffcc" stroke="orange" d="M88,-102C88,-102 46,-102 46,-102 43,-102 40,-99 40,-96 40,-96 40,-90 40,-90 40,-87 43,-84 46,-84 46,-84 88,-84 88,-84 91,-84 94,-87 94,-90 94,-90 94,-96 94,-96 94,-99 91,-102 88,-102"/>
<text text-anchor="middle" x="67" y="-90.8" font-family="Helvetica,sans-Serif" font-size="9.00" fill="orange">_app.tsx</text>
</a>
</g>
</g>
<!-- src/pages/api/auth/pocket.ts -->
<g id="node2" class="node">
<title>src/pages/api/auth/pocket.ts</title>
<g id="a_node2"><a xlink:href="src/pages/api/auth/pocket.ts" xlink:title="no&#45;orphans">
<path fill="#ccffcc" stroke="orange" d="M88,-234C88,-234 46,-234 46,-234 43,-234 40,-231 40,-228 40,-228 40,-222 40,-222 40,-219 43,-216 46,-216 46,-216 88,-216 88,-216 91,-216 94,-219 94,-222 94,-222 94,-228 94,-228 94,-231 91,-234 88,-234"/>
<text text-anchor="middle" x="67" y="-222.8" font-family="Helvetica,sans-Serif" font-size="9.00" fill="orange">pocket.ts</text>
</a>
</g>
</g>
<!-- src/pages/api/items/get.ts -->
<g id="node3" class="node">
<title>src/pages/api/items/get.ts</title>
<g id="a_node3"><a xlink:href="src/pages/api/items/get.ts" xlink:title="no&#45;orphans">
<path fill="#ccffcc" stroke="orange" d="M88,-174C88,-174 46,-174 46,-174 43,-174 40,-171 40,-168 40,-168 40,-162 40,-162 40,-159 43,-156 46,-156 46,-156 88,-156 88,-156 91,-156 94,-159 94,-162 94,-162 94,-168 94,-168 94,-171 91,-174 88,-174"/>
<text text-anchor="middle" x="67" y="-162.8" font-family="Helvetica,sans-Serif" font-size="9.00" fill="orange">get.ts</text>
</a>
</g>
</g>
<!-- src/pages/api/items/send.ts -->
<g id="node4" class="node">
<title>src/pages/api/items/send.ts</title>
<g id="a_node4"><a xlink:href="src/pages/api/items/send.ts" xlink:title="no&#45;orphans">
<path fill="#ccffcc" stroke="orange" d="M88,-144C88,-144 46,-144 46,-144 43,-144 40,-141 40,-138 40,-138 40,-132 40,-132 40,-129 43,-126 46,-126 46,-126 88,-126 88,-126 91,-126 94,-129 94,-132 94,-132 94,-138 94,-138 94,-141 91,-144 88,-144"/>
<text text-anchor="middle" x="67" y="-132.8" font-family="Helvetica,sans-Serif" font-size="9.00" fill="orange">send.ts</text>
</a>
</g>
</g>
<!-- src/pages/index.tsx -->
<g id="node5" class="node">
<title>src/pages/index.tsx</title>
<g id="a_node5"><a xlink:href="src/pages/index.tsx" xlink:title="index.tsx">
<path fill="#bbfeff" stroke="black" d="M88,-42C88,-42 46,-42 46,-42 43,-42 40,-39 40,-36 40,-36 40,-30 40,-30 40,-27 43,-24 46,-24 46,-24 88,-24 88,-24 91,-24 94,-27 94,-30 94,-30 94,-36 94,-36 94,-39 91,-42 88,-42"/>
<text text-anchor="middle" x="67" y="-30.8" font-family="Helvetica,sans-Serif" font-size="9.00">index.tsx</text>
</a>
</g>
</g>
<!-- src/styles/Home.module.css -->
<g id="node6" class="node">
<title>src/styles/Home.module.css</title>
<g id="a_node6"><a xlink:href="src/styles/Home.module.css" xlink:title="Home.module.css">
<path fill="#ffffcc" stroke="black" d="M222,-42C222,-42 144,-42 144,-42 141,-42 138,-39 138,-36 138,-36 138,-30 138,-30 138,-27 141,-24 144,-24 144,-24 222,-24 222,-24 225,-24 228,-27 228,-30 228,-30 228,-36 228,-36 228,-39 225,-42 222,-42"/>
<text text-anchor="middle" x="183" y="-30.8" font-family="Helvetica,sans-Serif" font-size="9.00">Home.module.css</text>
</a>
</g>
</g>
<!-- src/pages/index.tsx&#45;&gt;src/styles/Home.module.css -->
<g id="edge1" class="edge">
<title>src/pages/index.tsx&#45;&gt;src/styles/Home.module.css</title>
<path fill="none" stroke="#000000" stroke-width="2" stroke-opacity="0.200000" d="M94.15,-33C105.23,-33 118.52,-33 131.38,-33"/>
<polygon fill="#000000" fill-opacity="0.200000" stroke="#000000" stroke-width="2" stroke-opacity="0.200000" points="131.64,-35.1 137.64,-33 131.64,-30.9 131.64,-35.1"/>
</g>
<!-- src/pages/items.tsx -->
<g id="node7" class="node">
<title>src/pages/items.tsx</title>
<g id="a_node7"><a xlink:href="src/pages/items.tsx" xlink:title="items.tsx">
<path fill="#bbfeff" stroke="black" d="M88,-72C88,-72 46,-72 46,-72 43,-72 40,-69 40,-66 40,-66 40,-60 40,-60 40,-57 43,-54 46,-54 46,-54 88,-54 88,-54 91,-54 94,-57 94,-60 94,-60 94,-66 94,-66 94,-69 91,-72 88,-72"/>
<text text-anchor="middle" x="67" y="-60.8" font-family="Helvetica,sans-Serif" font-size="9.00">items.tsx</text>
</a>
</g>
</g>
<!-- src/services/sendActions.ts -->
<g id="node8" class="node">
<title>src/services/sendActions.ts</title>
<g id="a_node8"><a xlink:href="src/services/sendActions.ts" xlink:title="sendActions.ts">
<path fill="#ddfeff" stroke="black" d="M315,-102C315,-102 251,-102 251,-102 248,-102 245,-99 245,-96 245,-96 245,-90 245,-90 245,-87 248,-84 251,-84 251,-84 315,-84 315,-84 318,-84 321,-87 321,-90 321,-90 321,-96 321,-96 321,-99 318,-102 315,-102"/>
<text text-anchor="middle" x="283" y="-90.8" font-family="Helvetica,sans-Serif" font-size="9.00">sendActions.ts</text>
</a>
</g>
</g>
<!-- src/pages/items.tsx&#45;&gt;src/services/sendActions.ts -->
<g id="edge2" class="edge">
<title>src/pages/items.tsx&#45;&gt;src/services/sendActions.ts</title>
<path fill="none" stroke="#000000" stroke-width="2" stroke-opacity="0.200000" d="M94.26,-66.73C104.2,-68.12 115.62,-69.67 126,-71 174.83,-77.25 187.36,-76.38 236,-84 236.9,-84.14 237.82,-84.29 238.74,-84.44"/>
<polygon fill="#000000" fill-opacity="0.200000" stroke="#000000" stroke-width="2" stroke-opacity="0.200000" points="238.62,-86.55 244.89,-85.49 239.32,-82.41 238.62,-86.55"/>
</g>
<!-- src/services/useItemsGet.ts -->
<g id="node9" class="node">
<title>src/services/useItemsGet.ts</title>
<g id="a_node9"><a xlink:href="src/services/useItemsGet.ts" xlink:title="useItemsGet.ts">
<path fill="#ddfeff" stroke="black" d="M405,-116C405,-116 340,-116 340,-116 337,-116 334,-113 334,-110 334,-110 334,-104 334,-104 334,-101 337,-98 340,-98 340,-98 405,-98 405,-98 408,-98 411,-101 411,-104 411,-104 411,-110 411,-110 411,-113 408,-116 405,-116"/>
<text text-anchor="middle" x="372.5" y="-104.8" font-family="Helvetica,sans-Serif" font-size="9.00">useItemsGet.ts</text>
</a>
</g>
</g>
<!-- src/pages/items.tsx&#45;&gt;src/services/useItemsGet.ts -->
<g id="edge3" class="edge">
<title>src/pages/items.tsx&#45;&gt;src/services/useItemsGet.ts</title>
<path fill="none" stroke="#000000" stroke-width="2" stroke-opacity="0.200000" d="M94.2,-65.53C102.85,-67.62 111.83,-71.36 118,-78 129.16,-90 113.21,-103.74 126,-114 189.28,-164.76 294.11,-136.2 343.77,-118.19"/>
<polygon fill="#000000" fill-opacity="0.200000" stroke="#000000" stroke-width="2" stroke-opacity="0.200000" points="344.65,-120.1 349.55,-116.05 343.19,-116.16 344.65,-120.1"/>
</g>
<!-- src/services/useItemsMutation.ts -->
<g id="node10" class="node">
<title>src/services/useItemsMutation.ts</title>
<g id="a_node10"><a xlink:href="src/services/useItemsMutation.ts" xlink:title="useItemsMutation.ts">
<path fill="#ddfeff" stroke="black" d="M226,-108C226,-108 140,-108 140,-108 137,-108 134,-105 134,-102 134,-102 134,-96 134,-96 134,-93 137,-90 140,-90 140,-90 226,-90 226,-90 229,-90 232,-93 232,-96 232,-96 232,-102 232,-102 232,-105 229,-108 226,-108"/>
<text text-anchor="middle" x="183" y="-96.8" font-family="Helvetica,sans-Serif" font-size="9.00">useItemsMutation.ts</text>
</a>
</g>
</g>
<!-- src/pages/items.tsx&#45;&gt;src/services/useItemsMutation.ts -->
<g id="edge4" class="edge">
<title>src/pages/items.tsx&#45;&gt;src/services/useItemsMutation.ts</title>
<path fill="none" stroke="#000000" stroke-width="2" stroke-opacity="0.200000" d="M94.06,-70.46C101.8,-72.77 110.27,-75.39 118,-78 121.6,-79.21 122.41,-79.75 126,-81 132.78,-83.36 140.06,-85.78 147.06,-88.05"/>
<polygon fill="#000000" fill-opacity="0.200000" stroke="#000000" stroke-width="2" stroke-opacity="0.200000" points="146.49,-90.08 152.85,-89.92 147.78,-86.08 146.49,-90.08"/>
</g>
<!-- src/services/sendActions.ts&#45;&gt;src/services/useItemsGet.ts -->
<g id="edge5" class="edge">
<title>src/services/sendActions.ts&#45;&gt;src/services/useItemsGet.ts</title>
<path fill="none" stroke="#000000" stroke-width="2" stroke-opacity="0.200000" d="M321.11,-98.94C323.33,-99.29 325.59,-99.65 327.84,-100.01"/>
<polygon fill="#000000" fill-opacity="0.200000" stroke="#000000" stroke-width="2" stroke-opacity="0.200000" points="327.52,-102.09 333.78,-100.96 328.18,-97.94 327.52,-102.09"/>
</g>
<!-- src/services/useItemsMutation.ts&#45;&gt;src/services/sendActions.ts -->
<g id="edge6" class="edge">
<title>src/services/useItemsMutation.ts&#45;&gt;src/services/sendActions.ts</title>
<path fill="none" stroke="#000000" stroke-width="2" stroke-opacity="0.200000" d="M232.14,-96.05C234.27,-95.92 236.4,-95.79 238.52,-95.66"/>
<polygon fill="#000000" fill-opacity="0.200000" stroke="#000000" stroke-width="2" stroke-opacity="0.200000" points="238.95,-97.74 244.82,-95.28 238.7,-93.55 238.95,-97.74"/>
</g>
<!-- src/services/useItemsMutation.ts&#45;&gt;src/services/useItemsGet.ts -->
<g id="edge7" class="edge">
<title>src/services/useItemsMutation.ts&#45;&gt;src/services/useItemsGet.ts</title>
<path fill="none" stroke="#000000" stroke-width="2" stroke-opacity="0.200000" d="M232.21,-106.78C236.53,-107.27 240.84,-107.69 245,-108 278.69,-110.47 287.22,-108.33 321,-108 323.24,-107.98 325.53,-107.95 327.84,-107.92"/>
<polygon fill="#000000" fill-opacity="0.200000" stroke="#000000" stroke-width="2" stroke-opacity="0.200000" points="328.03,-110.02 334,-107.83 327.96,-105.82 328.03,-110.02"/>
</g>
</g>
</svg>
