<?xml version="1.0" encoding="UTF-8" standalone="no"?>
<!DOCTYPE svg PUBLIC "-//W3C//DTD SVG 1.1//EN"
 "http://www.w3.org/Graphics/SVG/1.1/DTD/svg11.dtd">
<!-- Generated by graphviz version 2.43.0 (0)
 -->
<!-- Title: dependency&#45;cruiser output Pages: 1 -->
<svg width="406pt" height="286pt"
 viewBox="0.00 0.00 406.00 286.03" xmlns="http://www.w3.org/2000/svg" xmlns:xlink="http://www.w3.org/1999/xlink">
<g id="graph0" class="graph" transform="scale(1 1) rotate(0) translate(4 282.03)">
<title>dependency&#45;cruiser output</title>
<polygon fill="white" stroke="transparent" points="-4,4 -4,-282.03 402,-282.03 402,4 -4,4"/>
<g id="clust1" class="cluster">
<title>cluster_node_modules</title>
<path fill="#ffffff" stroke="black" stroke-width="2" d="M318,-26.03C318,-26.03 378,-26.03 378,-26.03 384,-26.03 390,-32.03 390,-38.03 390,-38.03 390,-186.03 390,-186.03 390,-192.03 384,-198.03 378,-198.03 378,-198.03 318,-198.03 318,-198.03 312,-198.03 306,-192.03 306,-186.03 306,-186.03 306,-38.03 306,-38.03 306,-32.03 312,-26.03 318,-26.03"/>
<text text-anchor="middle" x="348" y="-186.83" font-family="Helvetica,sans-Serif" font-weight="bold" font-size="9.00">node_modules</text>
</g>
<g id="clust2" class="cluster">
<title>cluster_src</title>
<path fill="#ffffff" stroke="black" stroke-width="2" d="M20,-114.03C20,-114.03 286,-114.03 286,-114.03 292,-114.03 298,-120.03 298,-126.03 298,-126.03 298,-258.03 298,-258.03 298,-264.03 292,-270.03 286,-270.03 286,-270.03 20,-270.03 20,-270.03 14,-270.03 8,-264.03 8,-258.03 8,-258.03 8,-126.03 8,-126.03 8,-120.03 14,-114.03 20,-114.03"/>
<text text-anchor="middle" x="153" y="-258.83" font-family="Helvetica,sans-Serif" font-weight="bold" font-size="9.00">src</text>
</g>
<g id="clust3" class="cluster">
<title>cluster_src/components</title>
<path fill="#ffffff" stroke="black" stroke-width="2" d="M124,-182.03C124,-182.03 170,-182.03 170,-182.03 176,-182.03 182,-188.03 182,-194.03 182,-194.03 182,-222.03 182,-222.03 182,-228.03 176,-234.03 170,-234.03 170,-234.03 124,-234.03 124,-234.03 118,-234.03 112,-228.03 112,-222.03 112,-222.03 112,-194.03 112,-194.03 112,-188.03 118,-182.03 124,-182.03"/>
<text text-anchor="middle" x="147" y="-222.83" font-family="Helvetica,sans-Serif" font-weight="bold" font-size="9.00">components</text>
</g>
<g id="clust4" class="cluster">
<title>cluster_src/pages</title>
<path fill="#ffffff" stroke="black" stroke-width="2" d="M28,-122.03C28,-122.03 74,-122.03 74,-122.03 80,-122.03 86,-128.03 86,-134.03 86,-134.03 86,-222.03 86,-222.03 86,-228.03 80,-234.03 74,-234.03 74,-234.03 28,-234.03 28,-234.03 22,-234.03 16,-228.03 16,-222.03 16,-222.03 16,-134.03 16,-134.03 16,-128.03 22,-122.03 28,-122.03"/>
<text text-anchor="middle" x="51" y="-222.83" font-family="Helvetica,sans-Serif" font-weight="bold" font-size="9.00">pages</text>
</g>
<g id="clust5" class="cluster">
<title>cluster_src/services</title>
<path fill="#ffffff" stroke="black" stroke-width="2" d="M220,-192.03C220,-192.03 278,-192.03 278,-192.03 284,-192.03 290,-198.03 290,-204.03 290,-204.03 290,-232.03 290,-232.03 290,-238.03 284,-244.03 278,-244.03 278,-244.03 220,-244.03 220,-244.03 214,-244.03 208,-238.03 208,-232.03 208,-232.03 208,-204.03 208,-204.03 208,-198.03 214,-192.03 220,-192.03"/>
<text text-anchor="middle" x="249" y="-232.83" font-family="Helvetica,sans-Serif" font-weight="bold" font-size="9.00">services</text>
</g>
<g id="clust6" class="cluster">
<title>cluster_src/styles</title>
<path fill="#ffffff" stroke="black" stroke-width="2" d="M106,-122.03C106,-122.03 188,-122.03 188,-122.03 194,-122.03 200,-128.03 200,-134.03 200,-134.03 200,-162.03 200,-162.03 200,-168.03 194,-174.03 188,-174.03 188,-174.03 106,-174.03 106,-174.03 100,-174.03 94,-168.03 94,-162.03 94,-162.03 94,-134.03 94,-134.03 94,-128.03 100,-122.03 106,-122.03"/>
<text text-anchor="middle" x="147" y="-162.83" font-family="Helvetica,sans-Serif" font-weight="bold" font-size="9.00">styles</text>
</g>
<!-- node_modules/@tool&#45;belt -->
<g id="node1" class="node">
<title>node_modules/@tool&#45;belt</title>
<g id="a_node1"><a xlink:href="node_modules/@tool-belt" xlink:title="@tool&#45;belt">
<polygon fill="#c40b0a" fill-opacity="0.101961" stroke="black" points="377.5,-142.03 320.5,-142.03 318.5,-140.03 318.5,-124.03 375.5,-124.03 377.5,-126.03 377.5,-142.03"/>
<polyline fill="none" stroke="black" points="375.5,-140.03 318.5,-140.03 "/>
<polyline fill="none" stroke="black" points="375.5,-140.03 375.5,-124.03 "/>
<polyline fill="none" stroke="black" points="375.5,-140.03 377.5,-142.03 "/>
<text text-anchor="middle" x="348" y="-130.83" font-family="Helvetica,sans-Serif" font-size="9.00" fill="#c40b0a">@tool&#45;belt</text>
</a>
</g>
</g>
<!-- node_modules/next -->
<g id="node2" class="node">
<title>node_modules/next</title>
<g id="a_node2"><a xlink:href="node_modules/next" xlink:title="next">
<polygon fill="#c40b0a" fill-opacity="0.101961" stroke="black" points="375,-82.03 323,-82.03 321,-80.03 321,-64.03 373,-64.03 375,-66.03 375,-82.03"/>
<polyline fill="none" stroke="black" points="373,-80.03 321,-80.03 "/>
<polyline fill="none" stroke="black" points="373,-80.03 373,-64.03 "/>
<polyline fill="none" stroke="black" points="373,-80.03 375,-82.03 "/>
<text text-anchor="middle" x="348" y="-70.83" font-family="Helvetica,sans-Serif" font-size="9.00" fill="#c40b0a">next</text>
</a>
</g>
</g>
<!-- node_modules/react&#45;query -->
<g id="node3" class="node">
<title>node_modules/react&#45;query</title>
<g id="a_node3"><a xlink:href="node_modules/react-query" xlink:title="react&#45;query">
<polygon fill="#c40b0a" fill-opacity="0.101961" stroke="black" points="379.5,-172.03 318.5,-172.03 316.5,-170.03 316.5,-154.03 377.5,-154.03 379.5,-156.03 379.5,-172.03"/>
<polyline fill="none" stroke="black" points="377.5,-170.03 316.5,-170.03 "/>
<polyline fill="none" stroke="black" points="377.5,-170.03 377.5,-154.03 "/>
<polyline fill="none" stroke="black" points="377.5,-170.03 379.5,-172.03 "/>
<text text-anchor="middle" x="348" y="-160.83" font-family="Helvetica,sans-Serif" font-size="9.00" fill="#c40b0a">react&#45;query</text>
</a>
</g>
</g>
<!-- node_modules/tailwindcss -->
<g id="node4" class="node">
<title>node_modules/tailwindcss</title>
<g id="a_node4"><a xlink:href="node_modules/tailwindcss" xlink:title="tailwindcss">
<polygon fill="#c40b0a" fill-opacity="0.101961" stroke="black" points="379,-52.03 319,-52.03 317,-50.03 317,-34.03 377,-34.03 379,-36.03 379,-52.03"/>
<polyline fill="none" stroke="black" points="377,-50.03 317,-50.03 "/>
<polyline fill="none" stroke="black" points="377,-50.03 377,-34.03 "/>
<polyline fill="none" stroke="black" points="377,-50.03 379,-52.03 "/>
<text text-anchor="middle" x="348" y="-40.83" font-family="Helvetica,sans-Serif" font-size="9.00" fill="#c40b0a">tailwindcss</text>
</a>
</g>
</g>
<!-- node_modules/ts&#45;essentials -->
<g id="node5" class="node">
<title>node_modules/ts&#45;essentials</title>
<g id="a_node5"><a xlink:href="node_modules/ts-essentials" xlink:title="ts&#45;essentials">
<polygon fill="#c40b0a" fill-opacity="0.101961" stroke="black" points="382,-112.03 316,-112.03 314,-110.03 314,-94.03 380,-94.03 382,-96.03 382,-112.03"/>
<polyline fill="none" stroke="black" points="380,-110.03 314,-110.03 "/>
<polyline fill="none" stroke="black" points="380,-110.03 380,-94.03 "/>
<polyline fill="none" stroke="black" points="380,-110.03 382,-112.03 "/>
<text text-anchor="middle" x="348" y="-100.83" font-family="Helvetica,sans-Serif" font-size="9.00" fill="#c40b0a">ts&#45;essentials</text>
</a>
</g>
</g>
<!-- src/components/Book.tsx -->
<g id="node6" class="node">
<title>src/components/Book.tsx</title>
<g id="a_node6"><a xlink:href="src/components/Book.tsx" xlink:title="Book.tsx">
<path fill="#bbfeff" stroke="black" d="M168,-208.03C168,-208.03 126,-208.03 126,-208.03 123,-208.03 120,-205.03 120,-202.03 120,-202.03 120,-196.03 120,-196.03 120,-193.03 123,-190.03 126,-190.03 126,-190.03 168,-190.03 168,-190.03 171,-190.03 174,-193.03 174,-196.03 174,-196.03 174,-202.03 174,-202.03 174,-205.03 171,-208.03 168,-208.03"/>
<text text-anchor="middle" x="147" y="-196.83" font-family="Helvetica,sans-Serif" font-size="9.00">Book.tsx</text>
</a>
</g>
</g>
<!-- src/components/Book.tsx&#45;&gt;node_modules/@tool&#45;belt -->
<g id="edge1" class="edge">
<title>src/components/Book.tsx&#45;&gt;node_modules/@tool&#45;belt</title>
<path fill="none" stroke="#000000" stroke-opacity="0.200000" d="M174.04,-194.86C211.54,-188.46 278.41,-175.42 298,-161.03 303.47,-157.01 300.75,-152.32 306,-148.03 308.05,-146.35 310.3,-144.86 312.66,-143.52"/>
<polygon fill="#000000" fill-opacity="0.200000" stroke="#000000" stroke-opacity="0.200000" points="313.89,-145.25 318.32,-140.69 312.01,-141.5 313.89,-145.25"/>
</g>
<!-- src/components/Book.tsx&#45;&gt;node_modules/next -->
<g id="edge2" class="edge">
<title>src/components/Book.tsx&#45;&gt;node_modules/next</title>
<path fill="none" stroke="#000000" stroke-opacity="0.200000" d="M174.14,-193.72C183.69,-190.47 193.69,-185.28 200,-177.03 216.07,-156 191.03,-138.33 208,-118.03 221.76,-101.56 278.06,-87.2 314.65,-79.36"/>
<polygon fill="#000000" fill-opacity="0.200000" stroke="#000000" stroke-opacity="0.200000" points="315.35,-81.36 320.79,-78.06 314.49,-77.25 315.35,-81.36"/>
</g>
<!-- src/components/Book.tsx&#45;&gt;node_modules/ts&#45;essentials -->
<g id="edge4" class="edge">
<title>src/components/Book.tsx&#45;&gt;node_modules/ts&#45;essentials</title>
<g id="a_edge4"><a xlink:title="not&#45;to&#45;dev&#45;dep">
<path fill="none" stroke="red" d="M174.07,-191.94C183.06,-188.54 192.69,-183.71 200,-177.03 205.58,-171.93 202.48,-167.18 208,-162.03 242.89,-129.43 261.78,-136.02 306,-118.03 309.07,-116.78 312.29,-115.52 315.52,-114.28"/>
<polygon fill="red" stroke="red" points="316.43,-116.19 321.3,-112.11 314.95,-112.26 316.43,-116.19"/>
</a>
</g>
<text text-anchor="middle" x="272.51" y="-131.61" font-family="Helvetica,sans-Serif" font-size="9.00" fill="red">not&#45;to&#45;dev&#45;dep</text>
</g>
<!-- src/services/useBooks.ts -->
<g id="node7" class="node">
<title>src/services/useBooks.ts</title>
<g id="a_node7"><a xlink:href="src/services/useBooks.ts" xlink:title="useBooks.ts">
<path fill="#ddfeff" stroke="black" d="M276,-218.03C276,-218.03 222,-218.03 222,-218.03 219,-218.03 216,-215.03 216,-212.03 216,-212.03 216,-206.03 216,-206.03 216,-203.03 219,-200.03 222,-200.03 222,-200.03 276,-200.03 276,-200.03 279,-200.03 282,-203.03 282,-206.03 282,-206.03 282,-212.03 282,-212.03 282,-215.03 279,-218.03 276,-218.03"/>
<text text-anchor="middle" x="249" y="-206.83" font-family="Helvetica,sans-Serif" font-size="9.00">useBooks.ts</text>
</a>
</g>
</g>
<!-- src/components/Book.tsx&#45;&gt;src/services/useBooks.ts -->
<g id="edge3" class="edge">
<title>src/components/Book.tsx&#45;&gt;src/services/useBooks.ts</title>
<path fill="none" stroke="#000000" stroke-width="2" stroke-opacity="0.200000" d="M174.01,-201.63C184.85,-202.71 197.67,-203.99 209.56,-205.18"/>
<polygon fill="#000000" fill-opacity="0.200000" stroke="#000000" stroke-width="2" stroke-opacity="0.200000" points="209.5,-207.29 215.68,-205.79 209.92,-203.11 209.5,-207.29"/>
</g>
<!-- src/services/useBooks.ts&#45;&gt;node_modules/react&#45;query -->
<g id="edge13" class="edge">
<title>src/services/useBooks.ts&#45;&gt;node_modules/react&#45;query</title>
<path fill="none" stroke="#000000" stroke-opacity="0.200000" d="M270.14,-199.94C278.74,-196.01 288.89,-191.35 298,-187.03 306.35,-183.07 315.44,-178.65 323.51,-174.69"/>
<polygon fill="#000000" fill-opacity="0.200000" stroke="#000000" stroke-opacity="0.200000" points="324.45,-176.56 328.9,-172.03 322.59,-172.79 324.45,-176.56"/>
</g>
<!-- src/pages/_app.tsx -->
<g id="node8" class="node">
<title>src/pages/_app.tsx</title>
<g id="a_node8"><a xlink:href="src/pages/_app.tsx" xlink:title="_app.tsx">
<path fill="#bbfeff" stroke="black" d="M72,-148.03C72,-148.03 30,-148.03 30,-148.03 27,-148.03 24,-145.03 24,-142.03 24,-142.03 24,-136.03 24,-136.03 24,-133.03 27,-130.03 30,-130.03 30,-130.03 72,-130.03 72,-130.03 75,-130.03 78,-133.03 78,-136.03 78,-136.03 78,-142.03 78,-142.03 78,-145.03 75,-148.03 72,-148.03"/>
<text text-anchor="middle" x="51" y="-136.83" font-family="Helvetica,sans-Serif" font-size="9.00">_app.tsx</text>
</a>
</g>
</g>
<!-- src/pages/_app.tsx&#45;&gt;node_modules/next -->
<g id="edge5" class="edge">
<title>src/pages/_app.tsx&#45;&gt;node_modules/next</title>
<path fill="none" stroke="#000000" stroke-opacity="0.200000" d="M61.51,-129.75C84.38,-108.2 145.21,-55.19 208,-37.03 246.42,-25.91 265.06,-14.33 298,-37.03 306.22,-42.69 298.89,-51.01 306,-58.03 308.69,-60.68 311.89,-62.87 315.3,-64.68"/>
<polygon fill="#000000" fill-opacity="0.200000" stroke="#000000" stroke-opacity="0.200000" points="314.45,-66.6 320.78,-67.21 316.21,-62.79 314.45,-66.6"/>
</g>
<!-- src/pages/_app.tsx&#45;&gt;node_modules/react&#45;query -->
<g id="edge6" class="edge">
<title>src/pages/_app.tsx&#45;&gt;node_modules/react&#45;query</title>
<path fill="none" stroke="#000000" stroke-opacity="0.200000" d="M66.96,-129.9C74.73,-125.69 84.55,-121.16 94,-119.03 139.95,-108.64 153.39,-112.2 200,-119.03 222.05,-122.26 278.07,-140.06 314.24,-152.01"/>
<polygon fill="#000000" fill-opacity="0.200000" stroke="#000000" stroke-opacity="0.200000" points="313.95,-154.12 320.31,-154.02 315.27,-150.14 313.95,-154.12"/>
</g>
<!-- src/pages/_app.tsx&#45;&gt;node_modules/tailwindcss -->
<g id="edge7" class="edge">
<title>src/pages/_app.tsx&#45;&gt;node_modules/tailwindcss</title>
<path fill="none" stroke="#000000" stroke-opacity="0.200000" d="M52.82,-129.91C55.17,-109.61 63.84,-60.63 94,-37.03 165.64,19.05 209.2,-0.22 298,-20.03 307.84,-22.22 318.03,-26.61 326.56,-30.98"/>
<polygon fill="#000000" fill-opacity="0.200000" stroke="#000000" stroke-opacity="0.200000" points="325.89,-33 332.17,-33.97 327.86,-29.29 325.89,-33"/>
</g>
<!-- src/pages/index.tsx -->
<g id="node9" class="node">
<title>src/pages/index.tsx</title>
<g id="a_node9"><a xlink:href="src/pages/index.tsx" xlink:title="index.tsx">
<path fill="#bbfeff" stroke="black" d="M72,-178.03C72,-178.03 30,-178.03 30,-178.03 27,-178.03 24,-175.03 24,-172.03 24,-172.03 24,-166.03 24,-166.03 24,-163.03 27,-160.03 30,-160.03 30,-160.03 72,-160.03 72,-160.03 75,-160.03 78,-163.03 78,-166.03 78,-166.03 78,-172.03 78,-172.03 78,-175.03 75,-178.03 72,-178.03"/>
<text text-anchor="middle" x="51" y="-166.83" font-family="Helvetica,sans-Serif" font-size="9.00">index.tsx</text>
</a>
</g>
</g>
<!-- src/pages/index.tsx&#45;&gt;node_modules/next -->
<g id="edge8" class="edge">
<title>src/pages/index.tsx&#45;&gt;node_modules/next</title>
<path fill="none" stroke="#000000" stroke-opacity="0.200000" d="M78.22,-160.97C81.21,-159.11 83.92,-156.82 86,-154.03 103.36,-130.66 74.49,-110.63 94,-89.03 128.83,-50.46 156.36,-68.84 208,-63.03 247.75,-58.55 258.2,-59.01 298,-63.03 303.52,-63.58 309.34,-64.49 314.96,-65.53"/>
<polygon fill="#000000" fill-opacity="0.200000" stroke="#000000" stroke-opacity="0.200000" points="314.67,-67.61 320.96,-66.7 315.47,-63.49 314.67,-67.61"/>
</g>
<!-- src/styles/Home.module.css -->
<g id="node10" class="node">
<title>src/styles/Home.module.css</title>
<g id="a_node10"><a xlink:href="src/styles/Home.module.css" xlink:title="Home.module.css">
<path fill="#ffffcc" stroke="black" d="M186,-148.03C186,-148.03 108,-148.03 108,-148.03 105,-148.03 102,-145.03 102,-142.03 102,-142.03 102,-136.03 102,-136.03 102,-133.03 105,-130.03 108,-130.03 108,-130.03 186,-130.03 186,-130.03 189,-130.03 192,-133.03 192,-136.03 192,-136.03 192,-142.03 192,-142.03 192,-145.03 189,-148.03 186,-148.03"/>
<text text-anchor="middle" x="147" y="-136.83" font-family="Helvetica,sans-Serif" font-size="9.00">Home.module.css</text>
</a>
</g>
</g>
<!-- src/pages/index.tsx&#45;&gt;src/styles/Home.module.css -->
<g id="edge9" class="edge">
<title>src/pages/index.tsx&#45;&gt;src/styles/Home.module.css</title>
<path fill="none" stroke="#000000" stroke-width="2" stroke-opacity="0.200000" d="M78.18,-160.67C88.54,-157.36 100.59,-153.52 111.64,-149.99"/>
<polygon fill="#000000" fill-opacity="0.200000" stroke="#000000" stroke-width="2" stroke-opacity="0.200000" points="112.57,-151.9 117.65,-148.07 111.3,-147.9 112.57,-151.9"/>
</g>
<!-- src/pages/list.tsx -->
<g id="node11" class="node">
<title>src/pages/list.tsx</title>
<g id="a_node11"><a xlink:href="src/pages/list.tsx" xlink:title="list.tsx">
<path fill="#bbfeff" stroke="black" d="M72,-208.03C72,-208.03 30,-208.03 30,-208.03 27,-208.03 24,-205.03 24,-202.03 24,-202.03 24,-196.03 24,-196.03 24,-193.03 27,-190.03 30,-190.03 30,-190.03 72,-190.03 72,-190.03 75,-190.03 78,-193.03 78,-196.03 78,-196.03 78,-202.03 78,-202.03 78,-205.03 75,-208.03 72,-208.03"/>
<text text-anchor="middle" x="51" y="-196.83" font-family="Helvetica,sans-Serif" font-size="9.00">list.tsx</text>
</a>
</g>
</g>
<!-- src/pages/list.tsx&#45;&gt;node_modules/next -->
<g id="edge11" class="edge">
<title>src/pages/list.tsx&#45;&gt;node_modules/next</title>
<path fill="none" stroke="#000000" stroke-opacity="0.200000" d="M78.22,-190.97C81.21,-189.11 83.92,-186.82 86,-184.03 103.36,-160.66 75.3,-141.33 94,-119.03 98.26,-113.95 201.49,-85.27 208,-84.03 244.14,-77.13 286.37,-74.55 314.72,-73.59"/>
<polygon fill="#000000" fill-opacity="0.200000" stroke="#000000" stroke-opacity="0.200000" points="314.97,-75.68 320.9,-73.39 314.84,-71.48 314.97,-75.68"/>
</g>
<!-- src/pages/list.tsx&#45;&gt;src/components/Book.tsx -->
<g id="edge10" class="edge">
<title>src/pages/list.tsx&#45;&gt;src/components/Book.tsx</title>
<path fill="none" stroke="#000000" stroke-width="2" stroke-opacity="0.200000" d="M78.18,-199.03C89.18,-199.03 102.09,-199.03 113.68,-199.03"/>
<polygon fill="#000000" fill-opacity="0.200000" stroke="#000000" stroke-width="2" stroke-opacity="0.200000" points="113.96,-201.13 119.96,-199.03 113.96,-196.93 113.96,-201.13"/>
</g>
<!-- src/pages/list.tsx&#45;&gt;src/services/useBooks.ts -->
<g id="edge12" class="edge">
<title>src/pages/list.tsx&#45;&gt;src/services/useBooks.ts</title>
<path fill="none" stroke="#000000" stroke-width="2" stroke-opacity="0.200000" d="M58.82,-208.32C66.26,-217.6 79.14,-231.3 94,-237.03 137.96,-253.96 154.52,-249.32 200,-237.03 211.26,-233.98 222.59,-227.57 231.41,-221.65"/>
<polygon fill="#000000" fill-opacity="0.200000" stroke="#000000" stroke-width="2" stroke-opacity="0.200000" points="232.84,-223.21 236.56,-218.06 230.44,-219.77 232.84,-223.21"/>
</g>
</g>
</svg>
