<?xml version="1.0" encoding="UTF-8" standalone="no"?>
<!DOCTYPE svg PUBLIC "-//W3C//DTD SVG 1.1//EN"
 "http://www.w3.org/Graphics/SVG/1.1/DTD/svg11.dtd">
<!-- Generated by graphviz version 2.43.0 (0)
 -->
<!-- Title: dependency&#45;cruiser output Pages: 1 -->
<svg width="563pt" height="710pt"
 viewBox="0.00 0.00 563.00 710.00" xmlns="http://www.w3.org/2000/svg" xmlns:xlink="http://www.w3.org/1999/xlink">
<g id="graph0" class="graph" transform="scale(1 1) rotate(0) translate(4 706)">
<title>dependency&#45;cruiser output</title>
<polygon fill="white" stroke="transparent" points="-4,4 -4,-706 559,-706 559,4 -4,4"/>
<g id="clust1" class="cluster">
<title>cluster_node_modules</title>
<path fill="#ffffff" stroke="black" stroke-width="2" d="M366,-8C366,-8 434,-8 434,-8 440,-8 446,-14 446,-20 446,-20 446,-348 446,-348 446,-354 440,-360 434,-360 434,-360 366,-360 366,-360 360,-360 354,-354 354,-348 354,-348 354,-20 354,-20 354,-14 360,-8 366,-8"/>
<text text-anchor="middle" x="400" y="-348.8" font-family="Helvetica,sans-Serif" font-weight="bold" font-size="9.00">node_modules</text>
</g>
<g id="clust2" class="cluster">
<title>cluster_src</title>
<path fill="#ffffff" stroke="black" stroke-width="2" d="M20,-368C20,-368 535,-368 535,-368 541,-368 547,-374 547,-380 547,-380 547,-682 547,-682 547,-688 541,-694 535,-694 535,-694 20,-694 20,-694 14,-694 8,-688 8,-682 8,-682 8,-380 8,-380 8,-374 14,-368 20,-368"/>
<text text-anchor="middle" x="277.5" y="-682.8" font-family="Helvetica,sans-Serif" font-weight="bold" font-size="9.00">src</text>
</g>
<g id="clust3" class="cluster">
<title>cluster_src/components</title>
<path fill="#ffffff" stroke="black" stroke-width="2" d="M149.5,-436C149.5,-436 332.5,-436 332.5,-436 338.5,-436 344.5,-442 344.5,-448 344.5,-448 344.5,-476 344.5,-476 344.5,-482 338.5,-488 332.5,-488 332.5,-488 149.5,-488 149.5,-488 143.5,-488 137.5,-482 137.5,-476 137.5,-476 137.5,-448 137.5,-448 137.5,-442 143.5,-436 149.5,-436"/>
<text text-anchor="middle" x="241" y="-476.8" font-family="Helvetica,sans-Serif" font-weight="bold" font-size="9.00">components</text>
</g>
<g id="clust4" class="cluster">
<title>cluster_src/pages</title>
<path fill="#ffffff" stroke="black" stroke-width="2" d="M28,-376C28,-376 110,-376 110,-376 116,-376 122,-382 122,-388 122,-388 122,-656 122,-656 122,-662 116,-668 110,-668 110,-668 28,-668 28,-668 22,-668 16,-662 16,-656 16,-656 16,-388 16,-388 16,-382 22,-376 28,-376"/>
<text text-anchor="middle" x="69" y="-656.8" font-family="Helvetica,sans-Serif" font-weight="bold" font-size="9.00">pages</text>
</g>
<g id="clust5" class="cluster">
<title>cluster_src/pages/api</title>
<path fill="#ffffff" stroke="black" stroke-width="2" d="M36,-410C36,-410 102,-410 102,-410 108,-410 114,-416 114,-422 114,-422 114,-604 114,-604 114,-610 108,-616 102,-616 102,-616 36,-616 36,-616 30,-616 24,-610 24,-604 24,-604 24,-422 24,-422 24,-416 30,-410 36,-410"/>
<text text-anchor="middle" x="69" y="-604.8" font-family="Helvetica,sans-Serif" font-weight="bold" font-size="9.00">api</text>
</g>
<g id="clust6" class="cluster">
<title>cluster_src/pages/api/auth</title>
<path fill="#ffffff" stroke="black" stroke-width="2" d="M46,-538C46,-538 92,-538 92,-538 98,-538 104,-544 104,-550 104,-550 104,-578 104,-578 104,-584 98,-590 92,-590 92,-590 46,-590 46,-590 40,-590 34,-584 34,-578 34,-578 34,-550 34,-550 34,-544 40,-538 46,-538"/>
<text text-anchor="middle" x="69" y="-578.8" font-family="Helvetica,sans-Serif" font-weight="bold" font-size="9.00">auth</text>
</g>
<g id="clust7" class="cluster">
<title>cluster_src/pages/api/items</title>
<path fill="#ffffff" stroke="black" stroke-width="2" d="M44,-418C44,-418 94,-418 94,-418 100,-418 106,-424 106,-430 106,-430 106,-518 106,-518 106,-524 100,-530 94,-530 94,-530 44,-530 44,-530 38,-530 32,-524 32,-518 32,-518 32,-430 32,-430 32,-424 38,-418 44,-418"/>
<text text-anchor="middle" x="69" y="-518.8" font-family="Helvetica,sans-Serif" font-weight="bold" font-size="9.00">items</text>
</g>
<g id="clust8" class="cluster">
<title>cluster_src/services</title>
<path fill="#ffffff" stroke="black" stroke-width="2" d="M252,-496C252,-496 527,-496 527,-496 533,-496 539,-502 539,-508 539,-508 539,-566 539,-566 539,-572 533,-578 527,-578 527,-578 252,-578 252,-578 246,-578 240,-572 240,-566 240,-566 240,-508 240,-508 240,-502 246,-496 252,-496"/>
<text text-anchor="middle" x="389.5" y="-566.8" font-family="Helvetica,sans-Serif" font-weight="bold" font-size="9.00">services</text>
</g>
<g id="clust9" class="cluster">
<title>cluster_src/styles</title>
<path fill="#ffffff" stroke="black" stroke-width="2" d="M142,-376C142,-376 220,-376 220,-376 226,-376 232,-382 232,-388 232,-388 232,-416 232,-416 232,-422 226,-428 220,-428 220,-428 142,-428 142,-428 136,-428 130,-422 130,-416 130,-416 130,-388 130,-388 130,-382 136,-376 142,-376"/>
<text text-anchor="middle" x="181" y="-416.8" font-family="Helvetica,sans-Serif" font-weight="bold" font-size="9.00">styles</text>
</g>
<!-- node_modules/clsx -->
<g id="node1" class="node">
<title>node_modules/clsx</title>
<g id="a_node1"><a xlink:href="node_modules/clsx" xlink:title="clsx">
<polygon fill="#c40b0a" fill-opacity="0.101961" stroke="black" points="427,-214 375,-214 373,-212 373,-196 425,-196 427,-198 427,-214"/>
<polyline fill="none" stroke="black" points="425,-212 373,-212 "/>
<polyline fill="none" stroke="black" points="425,-212 425,-196 "/>
<polyline fill="none" stroke="black" points="425,-212 427,-214 "/>
<text text-anchor="middle" x="400" y="-202.8" font-family="Helvetica,sans-Serif" font-size="9.00" fill="#c40b0a">clsx</text>
</a>
</g>
</g>
<!-- node_modules/next -->
<g id="node2" class="node">
<title>node_modules/next</title>
<g id="a_node2"><a xlink:href="node_modules/next" xlink:title="next">
<polygon fill="#c40b0a" fill-opacity="0.101961" stroke="black" points="427,-94 375,-94 373,-92 373,-76 425,-76 427,-78 427,-94"/>
<polyline fill="none" stroke="black" points="425,-92 373,-92 "/>
<polyline fill="none" stroke="black" points="425,-92 425,-76 "/>
<polyline fill="none" stroke="black" points="425,-92 427,-94 "/>
<text text-anchor="middle" x="400" y="-82.8" font-family="Helvetica,sans-Serif" font-size="9.00" fill="#c40b0a">next</text>
</a>
</g>
</g>
<!-- node_modules/pocket&#45;auth -->
<g id="node3" class="node">
<title>node_modules/pocket&#45;auth</title>
<g id="a_node3"><a xlink:href="node_modules/pocket-auth" xlink:title="pocket&#45;auth">
<polygon fill="#c40b0a" fill-opacity="0.101961" stroke="black" points="432.5,-154 369.5,-154 367.5,-152 367.5,-136 430.5,-136 432.5,-138 432.5,-154"/>
<polyline fill="none" stroke="black" points="430.5,-152 367.5,-152 "/>
<polyline fill="none" stroke="black" points="430.5,-152 430.5,-136 "/>
<polyline fill="none" stroke="black" points="430.5,-152 432.5,-154 "/>
<text text-anchor="middle" x="400" y="-142.8" font-family="Helvetica,sans-Serif" font-size="9.00" fill="#c40b0a">pocket&#45;auth</text>
</a>
</g>
</g>
<!-- node_modules/ramda -->
<g id="node4" class="node">
<title>node_modules/ramda</title>
<g id="a_node4"><a xlink:href="node_modules/ramda" xlink:title="ramda">
<polygon fill="#c40b0a" fill-opacity="0.101961" stroke="black" points="427,-334 375,-334 373,-332 373,-316 425,-316 427,-318 427,-334"/>
<polyline fill="none" stroke="black" points="425,-332 373,-332 "/>
<polyline fill="none" stroke="black" points="425,-332 425,-316 "/>
<polyline fill="none" stroke="black" points="425,-332 427,-334 "/>
<text text-anchor="middle" x="400" y="-322.8" font-family="Helvetica,sans-Serif" font-size="9.00" fill="#c40b0a">ramda</text>
</a>
</g>
</g>
<!-- node_modules/react -->
<g id="node5" class="node">
<title>node_modules/react</title>
<g id="a_node5"><a xlink:href="node_modules/react" xlink:title="react">
<polygon fill="#c40b0a" fill-opacity="0.101961" stroke="black" points="427,-244 375,-244 373,-242 373,-226 425,-226 427,-228 427,-244"/>
<polyline fill="none" stroke="black" points="425,-242 373,-242 "/>
<polyline fill="none" stroke="black" points="425,-242 425,-226 "/>
<polyline fill="none" stroke="black" points="425,-242 427,-244 "/>
<text text-anchor="middle" x="400" y="-232.8" font-family="Helvetica,sans-Serif" font-size="9.00" fill="#c40b0a">react</text>
</a>
</g>
</g>
<!-- node_modules/react&#45;icons -->
<g id="node6" class="node">
<title>node_modules/react&#45;icons</title>
<g id="a_node6"><a xlink:href="node_modules/react-icons" xlink:title="react&#45;icons">
<polygon fill="#c40b0a" fill-opacity="0.101961" stroke="black" points="431,-64 371,-64 369,-62 369,-46 429,-46 431,-48 431,-64"/>
<polyline fill="none" stroke="black" points="429,-62 369,-62 "/>
<polyline fill="none" stroke="black" points="429,-62 429,-46 "/>
<polyline fill="none" stroke="black" points="429,-62 431,-64 "/>
<text text-anchor="middle" x="400" y="-52.8" font-family="Helvetica,sans-Serif" font-size="9.00" fill="#c40b0a">react&#45;icons</text>
</a>
</g>
</g>
<!-- node_modules/react&#45;query -->
<g id="node7" class="node">
<title>node_modules/react&#45;query</title>
<g id="a_node7"><a xlink:href="node_modules/react-query" xlink:title="react&#45;query">
<polygon fill="#c40b0a" fill-opacity="0.101961" stroke="black" points="431.5,-304 370.5,-304 368.5,-302 368.5,-286 429.5,-286 431.5,-288 431.5,-304"/>
<polyline fill="none" stroke="black" points="429.5,-302 368.5,-302 "/>
<polyline fill="none" stroke="black" points="429.5,-302 429.5,-286 "/>
<polyline fill="none" stroke="black" points="429.5,-302 431.5,-304 "/>
<text text-anchor="middle" x="400" y="-292.8" font-family="Helvetica,sans-Serif" font-size="9.00" fill="#c40b0a">react&#45;query</text>
</a>
</g>
</g>
<!-- node_modules/react&#45;tag&#45;input -->
<g id="node8" class="node">
<title>node_modules/react&#45;tag&#45;input</title>
<g id="a_node8"><a xlink:href="node_modules/react-tag-input" xlink:title="react&#45;tag&#45;input">
<polygon fill="#c40b0a" fill-opacity="0.101961" stroke="black" points="438,-274 364,-274 362,-272 362,-256 436,-256 438,-258 438,-274"/>
<polyline fill="none" stroke="black" points="436,-272 362,-272 "/>
<polyline fill="none" stroke="black" points="436,-272 436,-256 "/>
<polyline fill="none" stroke="black" points="436,-272 438,-274 "/>
<text text-anchor="middle" x="400" y="-262.8" font-family="Helvetica,sans-Serif" font-size="9.00" fill="#c40b0a">react&#45;tag&#45;input</text>
</a>
</g>
</g>
<!-- node_modules/react&#45;virtual -->
<g id="node9" class="node">
<title>node_modules/react&#45;virtual</title>
<g id="a_node9"><a xlink:href="node_modules/react-virtual" xlink:title="react&#45;virtual">
<polygon fill="#c40b0a" fill-opacity="0.101961" stroke="black" points="432.5,-34 369.5,-34 367.5,-32 367.5,-16 430.5,-16 432.5,-18 432.5,-34"/>
<polyline fill="none" stroke="black" points="430.5,-32 367.5,-32 "/>
<polyline fill="none" stroke="black" points="430.5,-32 430.5,-16 "/>
<polyline fill="none" stroke="black" points="430.5,-32 432.5,-34 "/>
<text text-anchor="middle" x="400" y="-22.8" font-family="Helvetica,sans-Serif" font-size="9.00" fill="#c40b0a">react&#45;virtual</text>
</a>
</g>
</g>
<!-- node_modules/tailwindcss -->
<g id="node10" class="node">
<title>node_modules/tailwindcss</title>
<g id="a_node10"><a xlink:href="node_modules/tailwindcss" xlink:title="tailwindcss">
<polygon fill="#c40b0a" fill-opacity="0.101961" stroke="black" points="431,-184 371,-184 369,-182 369,-166 429,-166 431,-168 431,-184"/>
<polyline fill="none" stroke="black" points="429,-182 369,-182 "/>
<polyline fill="none" stroke="black" points="429,-182 429,-166 "/>
<polyline fill="none" stroke="black" points="429,-182 431,-184 "/>
<text text-anchor="middle" x="400" y="-172.8" font-family="Helvetica,sans-Serif" font-size="9.00" fill="#c40b0a">tailwindcss</text>
</a>
</g>
</g>
<!-- node_modules/ts&#45;essentials -->
<g id="node11" class="node">
<title>node_modules/ts&#45;essentials</title>
<g id="a_node11"><a xlink:href="node_modules/ts-essentials" xlink:title="ts&#45;essentials">
<polygon fill="#c40b0a" fill-opacity="0.101961" stroke="black" points="434,-124 368,-124 366,-122 366,-106 432,-106 434,-108 434,-124"/>
<polyline fill="none" stroke="black" points="432,-122 366,-122 "/>
<polyline fill="none" stroke="black" points="432,-122 432,-106 "/>
<polyline fill="none" stroke="black" points="432,-122 434,-124 "/>
<text text-anchor="middle" x="400" y="-112.8" font-family="Helvetica,sans-Serif" font-size="9.00" fill="#c40b0a">ts&#45;essentials</text>
</a>
</g>
</g>
<!-- src/components/TagModal.tsx -->
<g id="node12" class="node">
<title>src/components/TagModal.tsx</title>
<g id="a_node12"><a xlink:href="src/components/TagModal.tsx" xlink:title="TagModal.tsx">
<path fill="#bbfeff" stroke="black" d="M210.5,-462C210.5,-462 151.5,-462 151.5,-462 148.5,-462 145.5,-459 145.5,-456 145.5,-456 145.5,-450 145.5,-450 145.5,-447 148.5,-444 151.5,-444 151.5,-444 210.5,-444 210.5,-444 213.5,-444 216.5,-447 216.5,-450 216.5,-450 216.5,-456 216.5,-456 216.5,-459 213.5,-462 210.5,-462"/>
<text text-anchor="middle" x="181" y="-450.8" font-family="Helvetica,sans-Serif" font-size="9.00">TagModal.tsx</text>
</a>
</g>
</g>
<!-- src/components/TagModal.tsx&#45;&gt;node_modules/clsx -->
<g id="edge1" class="edge">
<title>src/components/TagModal.tsx&#45;&gt;node_modules/clsx</title>
<path fill="none" stroke="#000000" stroke-opacity="0.200000" d="M215.39,-443.88C221.74,-440.75 227.72,-436.56 232,-431 245.99,-412.82 224.55,-396.97 240,-380 272.73,-344.05 315.03,-390.47 346,-353 364.86,-330.18 335.97,-243.49 354,-220 357.39,-215.59 362.12,-212.46 367.25,-210.24"/>
<polygon fill="#000000" fill-opacity="0.200000" stroke="#000000" stroke-opacity="0.200000" points="368.01,-212.2 372.94,-208.18 366.58,-208.25 368.01,-212.2"/>
</g>
<!-- src/components/TagModal.tsx&#45;&gt;node_modules/react -->
<g id="edge3" class="edge">
<title>src/components/TagModal.tsx&#45;&gt;node_modules/react</title>
<path fill="none" stroke="#000000" stroke-opacity="0.200000" d="M211.15,-443.9C253.8,-429.94 329.89,-402.42 346,-379 362.27,-355.33 336.49,-272.77 354,-250 357.39,-245.59 362.13,-242.46 367.26,-240.25"/>
<polygon fill="#000000" fill-opacity="0.200000" stroke="#000000" stroke-opacity="0.200000" points="368.02,-242.21 372.94,-238.19 366.59,-238.26 368.02,-242.21"/>
</g>
<!-- src/components/TagModal.tsx&#45;&gt;node_modules/ts&#45;essentials -->
<g id="edge6" class="edge">
<title>src/components/TagModal.tsx&#45;&gt;node_modules/ts&#45;essentials</title>
<g id="a_edge6"><a xlink:title="not&#45;to&#45;dev&#45;dep">
<path fill="none" stroke="red" d="M215.87,-443.92C222.1,-440.79 227.92,-436.59 232,-431 252.27,-403.2 223,-383.91 240,-354 269.04,-302.92 318.21,-326.77 346,-275 361.27,-246.57 334.42,-155.65 354,-130 355.84,-127.59 358.08,-125.56 360.57,-123.86"/>
<polygon fill="red" stroke="red" points="361.79,-125.58 365.98,-120.8 359.72,-121.93 361.79,-125.58"/>
</a>
</g>
<text text-anchor="middle" x="271.58" y="-304.42" font-family="Helvetica,sans-Serif" font-size="9.00" fill="red">not&#45;to&#45;dev&#45;dep</text>
</g>
<!-- src/components/TagSelector.tsx -->
<g id="node13" class="node">
<title>src/components/TagSelector.tsx</title>
<g id="a_node13"><a xlink:href="src/components/TagSelector.tsx" xlink:title="TagSelector.tsx">
<path fill="#bbfeff" stroke="black" d="M330.5,-462C330.5,-462 263.5,-462 263.5,-462 260.5,-462 257.5,-459 257.5,-456 257.5,-456 257.5,-450 257.5,-450 257.5,-447 260.5,-444 263.5,-444 263.5,-444 330.5,-444 330.5,-444 333.5,-444 336.5,-447 336.5,-450 336.5,-450 336.5,-456 336.5,-456 336.5,-459 333.5,-462 330.5,-462"/>
<text text-anchor="middle" x="297" y="-450.8" font-family="Helvetica,sans-Serif" font-size="9.00">TagSelector.tsx</text>
</a>
</g>
</g>
<!-- src/components/TagModal.tsx&#45;&gt;src/components/TagSelector.tsx -->
<g id="edge2" class="edge">
<title>src/components/TagModal.tsx&#45;&gt;src/components/TagSelector.tsx</title>
<path fill="none" stroke="#000000" stroke-width="2" stroke-opacity="0.200000" d="M216.51,-453C227.35,-453 239.48,-453 250.94,-453"/>
<polygon fill="#000000" fill-opacity="0.200000" stroke="#000000" stroke-width="2" stroke-opacity="0.200000" points="251.22,-455.1 257.22,-453 251.22,-450.9 251.22,-455.1"/>
</g>
<!-- src/services/useItemsGet.ts -->
<g id="node14" class="node">
<title>src/services/useItemsGet.ts</title>
<g id="a_node14"><a xlink:href="src/services/useItemsGet.ts" xlink:title="useItemsGet.ts">
<path fill="#ddfeff" stroke="black" d="M525,-530C525,-530 460,-530 460,-530 457,-530 454,-527 454,-524 454,-524 454,-518 454,-518 454,-515 457,-512 460,-512 460,-512 525,-512 525,-512 528,-512 531,-515 531,-518 531,-518 531,-524 531,-524 531,-527 528,-530 525,-530"/>
<text text-anchor="middle" x="492.5" y="-518.8" font-family="Helvetica,sans-Serif" font-size="9.00">useItemsGet.ts</text>
</a>
</g>
</g>
<!-- src/components/TagModal.tsx&#45;&gt;src/services/useItemsGet.ts -->
<g id="edge4" class="edge">
<title>src/components/TagModal.tsx&#45;&gt;src/services/useItemsGet.ts</title>
<path fill="none" stroke="#000000" stroke-width="2" stroke-opacity="0.200000" d="M215.98,-462.06C223.85,-464.09 232.2,-466.17 240,-468 312.64,-485.04 397.68,-502.43 447.93,-512.44"/>
<polygon fill="#000000" fill-opacity="0.200000" stroke="#000000" stroke-width="2" stroke-opacity="0.200000" points="447.59,-514.52 453.89,-513.63 448.41,-510.4 447.59,-514.52"/>
</g>
<!-- src/services/useTagGet.ts -->
<g id="node15" class="node">
<title>src/services/useTagGet.ts</title>
<g id="a_node15"><a xlink:href="src/services/useTagGet.ts" xlink:title="useTagGet.ts">
<path fill="#ddfeff" stroke="black" d="M326,-522C326,-522 268,-522 268,-522 265,-522 262,-519 262,-516 262,-516 262,-510 262,-510 262,-507 265,-504 268,-504 268,-504 326,-504 326,-504 329,-504 332,-507 332,-510 332,-510 332,-516 332,-516 332,-519 329,-522 326,-522"/>
<text text-anchor="middle" x="297" y="-510.8" font-family="Helvetica,sans-Serif" font-size="9.00">useTagGet.ts</text>
</a>
</g>
</g>
<!-- src/components/TagModal.tsx&#45;&gt;src/services/useTagGet.ts -->
<g id="edge5" class="edge">
<title>src/components/TagModal.tsx&#45;&gt;src/services/useTagGet.ts</title>
<path fill="none" stroke="#000000" stroke-width="2" stroke-opacity="0.200000" d="M194.44,-462.24C205.89,-470.46 223.53,-482.49 240,-491 247.47,-494.86 255.78,-498.47 263.66,-501.6"/>
<polygon fill="#000000" fill-opacity="0.200000" stroke="#000000" stroke-width="2" stroke-opacity="0.200000" points="263.23,-503.69 269.58,-503.9 264.75,-499.77 263.23,-503.69"/>
</g>
<!-- src/components/TagSelector.tsx&#45;&gt;node_modules/react -->
<g id="edge7" class="edge">
<title>src/components/TagSelector.tsx&#45;&gt;node_modules/react</title>
<path fill="none" stroke="#000000" stroke-opacity="0.200000" d="M311.72,-443.77C323.16,-435.22 338.72,-421.37 346,-405 353.01,-389.24 343.56,-263.73 354,-250 357.37,-245.57 362.09,-242.44 367.22,-240.22"/>
<polygon fill="#000000" fill-opacity="0.200000" stroke="#000000" stroke-opacity="0.200000" points="367.98,-242.18 372.91,-238.16 366.55,-238.23 367.98,-242.18"/>
</g>
<!-- src/components/TagSelector.tsx&#45;&gt;node_modules/react&#45;tag&#45;input -->
<g id="edge8" class="edge">
<title>src/components/TagSelector.tsx&#45;&gt;node_modules/react&#45;tag&#45;input</title>
<path fill="none" stroke="#000000" stroke-opacity="0.200000" d="M311.67,-443.75C323.08,-435.18 338.62,-421.32 346,-405 357.47,-379.64 337.01,-302.05 354,-280 354.79,-278.97 355.66,-278.01 356.58,-277.12"/>
<polygon fill="#000000" fill-opacity="0.200000" stroke="#000000" stroke-opacity="0.200000" points="358.21,-278.52 361.66,-273.18 355.63,-275.2 358.21,-278.52"/>
</g>
<!-- src/services/useItemsGet.ts&#45;&gt;node_modules/react&#45;query -->
<g id="edge29" class="edge">
<title>src/services/useItemsGet.ts&#45;&gt;node_modules/react&#45;query</title>
<path fill="none" stroke="#000000" stroke-opacity="0.200000" d="M490.73,-511.98C487.47,-475.68 473.64,-340.84 446,-310 443.48,-307.18 440.41,-304.89 437.07,-303.03"/>
<polygon fill="#000000" fill-opacity="0.200000" stroke="#000000" stroke-opacity="0.200000" points="437.97,-301.14 431.65,-300.45 436.17,-304.93 437.97,-301.14"/>
</g>
<!-- src/services/useTagGet.ts&#45;&gt;node_modules/react&#45;query -->
<g id="edge35" class="edge">
<title>src/services/useTagGet.ts&#45;&gt;node_modules/react&#45;query</title>
<path fill="none" stroke="#000000" stroke-opacity="0.200000" d="M330.54,-503.98C336.6,-500.84 342.21,-496.63 346,-491 357.24,-474.3 341.87,-326.07 354,-310 356.34,-306.89 359.36,-304.42 362.71,-302.46"/>
<polygon fill="#000000" fill-opacity="0.200000" stroke="#000000" stroke-opacity="0.200000" points="363.74,-304.29 368.21,-299.77 361.9,-300.52 363.74,-304.29"/>
</g>
<!-- src/pages/_app.tsx -->
<g id="node16" class="node">
<title>src/pages/_app.tsx</title>
<g id="a_node16"><a xlink:href="src/pages/_app.tsx" xlink:title="_app.tsx">
<path fill="#bbfeff" stroke="black" d="M90,-642C90,-642 48,-642 48,-642 45,-642 42,-639 42,-636 42,-636 42,-630 42,-630 42,-627 45,-624 48,-624 48,-624 90,-624 90,-624 93,-624 96,-627 96,-630 96,-630 96,-636 96,-636 96,-639 93,-642 90,-642"/>
<text text-anchor="middle" x="69" y="-630.8" font-family="Helvetica,sans-Serif" font-size="9.00">_app.tsx</text>
</a>
</g>
</g>
<!-- src/pages/_app.tsx&#45;&gt;node_modules/next -->
<g id="edge9" class="edge">
<title>src/pages/_app.tsx&#45;&gt;node_modules/next</title>
<path fill="none" stroke="#000000" stroke-opacity="0.200000" d="M88.94,-623.97C100.74,-617.23 114.98,-606.81 122,-593 137.86,-561.79 110.49,-307.07 130,-278 159.21,-234.45 315.27,-225.49 346,-183 367.72,-152.97 330.91,-128.99 354,-100 357.32,-95.83 361.83,-92.81 366.73,-90.63"/>
<polygon fill="#000000" fill-opacity="0.200000" stroke="#000000" stroke-opacity="0.200000" points="367.72,-92.5 372.6,-88.43 366.24,-88.57 367.72,-92.5"/>
</g>
<!-- src/pages/_app.tsx&#45;&gt;node_modules/react&#45;query -->
<g id="edge10" class="edge">
<title>src/pages/_app.tsx&#45;&gt;node_modules/react&#45;query</title>
<path fill="none" stroke="#000000" stroke-opacity="0.200000" d="M88.89,-623.95C100.67,-617.2 114.91,-606.77 122,-593 133.2,-571.26 114.96,-392.29 130,-373 185.55,-301.79 302.09,-292.85 361.88,-293.31"/>
<polygon fill="#000000" fill-opacity="0.200000" stroke="#000000" stroke-opacity="0.200000" points="362.16,-295.41 368.18,-293.39 362.21,-291.21 362.16,-295.41"/>
</g>
<!-- src/pages/_app.tsx&#45;&gt;node_modules/tailwindcss -->
<g id="edge12" class="edge">
<title>src/pages/_app.tsx&#45;&gt;node_modules/tailwindcss</title>
<path fill="none" stroke="#000000" stroke-opacity="0.200000" d="M88.93,-623.97C100.73,-617.23 114.96,-606.8 122,-593 129.2,-578.89 119.51,-319.87 130,-308 194.3,-235.22 279.34,-345.62 346,-275 359.02,-261.2 342.2,-204.85 354,-190 356.55,-186.79 359.8,-184.27 363.39,-182.28"/>
<polygon fill="#000000" fill-opacity="0.200000" stroke="#000000" stroke-opacity="0.200000" points="364.31,-184.17 368.85,-179.73 362.53,-180.36 364.31,-184.17"/>
</g>
<!-- src/styles/TagSelector.scss -->
<g id="node17" class="node">
<title>src/styles/TagSelector.scss</title>
<g id="a_node17"><a xlink:href="src/styles/TagSelector.scss" xlink:title="TagSelector.scss">
<path fill="#ffffcc" stroke="black" d="M218,-402C218,-402 144,-402 144,-402 141,-402 138,-399 138,-396 138,-396 138,-390 138,-390 138,-387 141,-384 144,-384 144,-384 218,-384 218,-384 221,-384 224,-387 224,-390 224,-390 224,-396 224,-396 224,-399 221,-402 218,-402"/>
<text text-anchor="middle" x="181" y="-390.8" font-family="Helvetica,sans-Serif" font-size="9.00">TagSelector.scss</text>
</a>
</g>
</g>
<!-- src/pages/_app.tsx&#45;&gt;src/styles/TagSelector.scss -->
<g id="edge11" class="edge">
<title>src/pages/_app.tsx&#45;&gt;src/styles/TagSelector.scss</title>
<path fill="none" stroke="#000000" stroke-width="2" stroke-opacity="0.200000" d="M88.83,-623.92C100.59,-617.15 114.81,-606.72 122,-593 138.52,-561.46 113.78,-464.69 130,-433 135.87,-421.54 146.66,-412.26 156.72,-405.54"/>
<polygon fill="#000000" fill-opacity="0.200000" stroke="#000000" stroke-width="2" stroke-opacity="0.200000" points="157.94,-407.25 161.88,-402.26 155.69,-403.7 157.94,-407.25"/>
</g>
<!-- src/pages/api/auth/pocket.ts -->
<g id="node18" class="node">
<title>src/pages/api/auth/pocket.ts</title>
<g id="a_node18"><a xlink:href="src/pages/api/auth/pocket.ts" xlink:title="pocket.ts">
<path fill="#ddfeff" stroke="black" d="M90,-564C90,-564 48,-564 48,-564 45,-564 42,-561 42,-558 42,-558 42,-552 42,-552 42,-549 45,-546 48,-546 48,-546 90,-546 90,-546 93,-546 96,-549 96,-552 96,-552 96,-558 96,-558 96,-561 93,-564 90,-564"/>
<text text-anchor="middle" x="69" y="-552.8" font-family="Helvetica,sans-Serif" font-size="9.00">pocket.ts</text>
</a>
</g>
</g>
<!-- src/pages/api/auth/pocket.ts&#45;&gt;node_modules/next -->
<g id="edge13" class="edge">
<title>src/pages/api/auth/pocket.ts&#45;&gt;node_modules/next</title>
<path fill="none" stroke="#000000" stroke-opacity="0.200000" d="M96.06,-550.21C105.84,-547.02 116.03,-541.74 122,-533 140.11,-506.47 111.97,-270.59 130,-244 188.67,-157.5 281.92,-233.58 346,-151 360.07,-132.87 339.18,-117.51 354,-100 357.44,-95.93 362.02,-92.96 366.93,-90.8"/>
<polygon fill="#000000" fill-opacity="0.200000" stroke="#000000" stroke-opacity="0.200000" points="367.93,-92.67 372.81,-88.61 366.46,-88.73 367.93,-92.67"/>
</g>
<!-- src/pages/api/auth/pocket.ts&#45;&gt;node_modules/pocket&#45;auth -->
<g id="edge14" class="edge">
<title>src/pages/api/auth/pocket.ts&#45;&gt;node_modules/pocket&#45;auth</title>
<path fill="none" stroke="#000000" stroke-opacity="0.200000" d="M96.04,-550.2C105.82,-547.01 116.01,-541.73 122,-533 137.84,-509.9 112.6,-302.96 130,-281 191.73,-203.09 280.65,-297.9 346,-223 364.56,-201.73 336.08,-181.81 354,-160 356.16,-157.38 358.79,-155.21 361.68,-153.42"/>
<polygon fill="#000000" fill-opacity="0.200000" stroke="#000000" stroke-opacity="0.200000" points="362.78,-155.21 367.13,-150.58 360.84,-151.49 362.78,-155.21"/>
</g>
<!-- src/pages/api/items/get.ts -->
<g id="node19" class="node">
<title>src/pages/api/items/get.ts</title>
<g id="a_node19"><a xlink:href="src/pages/api/items/get.ts" xlink:title="get.ts">
<path fill="#ddfeff" stroke="black" d="M90,-444C90,-444 48,-444 48,-444 45,-444 42,-441 42,-438 42,-438 42,-432 42,-432 42,-429 45,-426 48,-426 48,-426 90,-426 90,-426 93,-426 96,-429 96,-432 96,-432 96,-438 96,-438 96,-441 93,-444 90,-444"/>
<text text-anchor="middle" x="69" y="-432.8" font-family="Helvetica,sans-Serif" font-size="9.00">get.ts</text>
</a>
</g>
</g>
<!-- src/pages/api/items/get.ts&#45;&gt;node_modules/next -->
<g id="edge15" class="edge">
<title>src/pages/api/items/get.ts&#45;&gt;node_modules/next</title>
<path fill="none" stroke="#000000" stroke-opacity="0.200000" d="M96.01,-434.81C105.66,-433.31 115.77,-429.76 122,-422 142.66,-396.26 107.82,-149.45 130,-125 162.5,-89.17 298.43,-106.78 346,-98 352.78,-96.75 359.98,-95.16 366.82,-93.53"/>
<polygon fill="#000000" fill-opacity="0.200000" stroke="#000000" stroke-opacity="0.200000" points="367.65,-95.49 372.98,-92.02 366.65,-91.41 367.65,-95.49"/>
</g>
<!-- src/pages/api/items/getTags.ts -->
<g id="node20" class="node">
<title>src/pages/api/items/getTags.ts</title>
<g id="a_node20"><a xlink:href="src/pages/api/items/getTags.ts" xlink:title="getTags.ts">
<path fill="#ddfeff" stroke="black" d="M92,-504C92,-504 46,-504 46,-504 43,-504 40,-501 40,-498 40,-498 40,-492 40,-492 40,-489 43,-486 46,-486 46,-486 92,-486 92,-486 95,-486 98,-489 98,-492 98,-492 98,-498 98,-498 98,-501 95,-504 92,-504"/>
<text text-anchor="middle" x="69" y="-492.8" font-family="Helvetica,sans-Serif" font-size="9.00">getTags.ts</text>
</a>
</g>
</g>
<!-- src/pages/api/items/getTags.ts&#45;&gt;node_modules/next -->
<g id="edge16" class="edge">
<title>src/pages/api/items/getTags.ts&#45;&gt;node_modules/next</title>
<path fill="none" stroke="#000000" stroke-opacity="0.200000" d="M98.26,-493.29C107.24,-491.26 116.31,-487.35 122,-480 141.6,-454.69 110.6,-217.46 130,-192 190.83,-112.15 274.95,-196.91 346,-126 354.56,-117.46 345.55,-108.65 354,-100 357.64,-96.27 362.23,-93.47 367.07,-91.37"/>
<polygon fill="#000000" fill-opacity="0.200000" stroke="#000000" stroke-opacity="0.200000" points="367.96,-93.28 372.84,-89.2 366.48,-89.35 367.96,-93.28"/>
</g>
<!-- src/pages/api/items/getTags.ts&#45;&gt;node_modules/ts&#45;essentials -->
<g id="edge17" class="edge">
<title>src/pages/api/items/getTags.ts&#45;&gt;node_modules/ts&#45;essentials</title>
<g id="a_edge17"><a xlink:title="not&#45;to&#45;dev&#45;dep">
<path fill="none" stroke="red" d="M98.24,-493.28C107.22,-491.25 116.29,-487.34 122,-480 139.13,-457.97 112.67,-250.87 130,-229 191.74,-151.1 278.2,-243.69 346,-171 358.66,-157.42 341.75,-143.95 354,-130 355.94,-127.8 358.21,-125.92 360.68,-124.31"/>
<polygon fill="red" stroke="red" points="361.75,-126.12 365.99,-121.39 359.72,-122.44 361.75,-126.12"/>
</a>
</g>
<text text-anchor="middle" x="205.2" y="-190.84" font-family="Helvetica,sans-Serif" font-size="9.00" fill="red">not&#45;to&#45;dev&#45;dep</text>
</g>
<!-- src/pages/api/items/send.ts -->
<g id="node21" class="node">
<title>src/pages/api/items/send.ts</title>
<g id="a_node21"><a xlink:href="src/pages/api/items/send.ts" xlink:title="send.ts">
<path fill="#ddfeff" stroke="black" d="M90,-474C90,-474 48,-474 48,-474 45,-474 42,-471 42,-468 42,-468 42,-462 42,-462 42,-459 45,-456 48,-456 48,-456 90,-456 90,-456 93,-456 96,-459 96,-462 96,-462 96,-468 96,-468 96,-471 93,-474 90,-474"/>
<text text-anchor="middle" x="69" y="-462.8" font-family="Helvetica,sans-Serif" font-size="9.00">send.ts</text>
</a>
</g>
</g>
<!-- src/pages/api/items/send.ts&#45;&gt;node_modules/next -->
<g id="edge18" class="edge">
<title>src/pages/api/items/send.ts&#45;&gt;node_modules/next</title>
<path fill="none" stroke="#000000" stroke-opacity="0.200000" d="M96.09,-463.75C105.76,-461.88 115.85,-457.95 122,-450 142.33,-423.71 108.52,-176.36 130,-151 161.6,-113.69 303.52,-133.22 346,-109 350.65,-106.35 349.53,-102.95 354,-100 357.96,-97.39 362.42,-95.19 366.96,-93.35"/>
<polygon fill="#000000" fill-opacity="0.200000" stroke="#000000" stroke-opacity="0.200000" points="367.81,-95.28 372.71,-91.22 366.35,-91.34 367.81,-95.28"/>
</g>
<!-- src/pages/index.tsx -->
<g id="node22" class="node">
<title>src/pages/index.tsx</title>
<g id="a_node22"><a xlink:href="src/pages/index.tsx" xlink:title="index.tsx">
<path fill="#bbfeff" stroke="black" d="M90,-402C90,-402 48,-402 48,-402 45,-402 42,-399 42,-396 42,-396 42,-390 42,-390 42,-387 45,-384 48,-384 48,-384 90,-384 90,-384 93,-384 96,-387 96,-390 96,-390 96,-396 96,-396 96,-399 93,-402 90,-402"/>
<text text-anchor="middle" x="69" y="-390.8" font-family="Helvetica,sans-Serif" font-size="9.00">index.tsx</text>
</a>
</g>
</g>
<!-- src/pages/index.tsx&#45;&gt;node_modules/next -->
<g id="edge20" class="edge">
<title>src/pages/index.tsx&#45;&gt;node_modules/next</title>
<path fill="none" stroke="#000000" stroke-opacity="0.200000" d="M70.06,-383.71C70.76,-351.62 77.12,-243.96 130,-180 189.99,-107.45 309.19,-90.26 366.6,-86.22"/>
<polygon fill="#000000" fill-opacity="0.200000" stroke="#000000" stroke-opacity="0.200000" points="366.78,-88.31 372.63,-85.83 366.5,-84.12 366.78,-88.31"/>
</g>
<!-- src/pages/index.tsx&#45;&gt;node_modules/react -->
<g id="edge21" class="edge">
<title>src/pages/index.tsx&#45;&gt;node_modules/react</title>
<path fill="none" stroke="#000000" stroke-opacity="0.200000" d="M81.52,-383.95C93.3,-374.95 112.32,-361.06 130,-351 224.93,-297.01 252.29,-289.76 354,-250 358.11,-248.39 362.48,-246.8 366.81,-245.29"/>
<polygon fill="#000000" fill-opacity="0.200000" stroke="#000000" stroke-opacity="0.200000" points="367.67,-247.21 372.66,-243.28 366.31,-243.24 367.67,-247.21"/>
</g>
<!-- src/pages/index.tsx&#45;&gt;node_modules/react&#45;icons -->
<g id="edge22" class="edge">
<title>src/pages/index.tsx&#45;&gt;node_modules/react&#45;icons</title>
<path fill="none" stroke="#000000" stroke-opacity="0.200000" d="M70.65,-383.96C73.97,-340.26 90.46,-151.44 130,-111 191.78,-47.82 305.01,-46.75 362.87,-50.99"/>
<polygon fill="#000000" fill-opacity="0.200000" stroke="#000000" stroke-opacity="0.200000" points="362.83,-53.09 368.97,-51.47 363.16,-48.91 362.83,-53.09"/>
</g>
<!-- src/pages/index.tsx&#45;&gt;node_modules/react&#45;virtual -->
<g id="edge23" class="edge">
<title>src/pages/index.tsx&#45;&gt;node_modules/react&#45;virtual</title>
<path fill="none" stroke="#000000" stroke-opacity="0.200000" d="M70.22,-383.81C71.62,-334.67 80.75,-103.46 130,-57 192.55,2.01 302.97,-6.95 360.97,-16.89"/>
<polygon fill="#000000" fill-opacity="0.200000" stroke="#000000" stroke-opacity="0.200000" points="360.82,-19 367.1,-17.98 361.56,-14.86 360.82,-19"/>
</g>
<!-- src/pages/index.tsx&#45;&gt;node_modules/ts&#45;essentials -->
<g id="edge27" class="edge">
<title>src/pages/index.tsx&#45;&gt;node_modules/ts&#45;essentials</title>
<g id="a_edge27"><a xlink:title="not&#45;to&#45;dev&#45;dep">
<path fill="none" stroke="red" d="M74.71,-383.59C91.91,-350.17 154.87,-235.96 240,-177 276.92,-151.43 325.85,-134.41 359.64,-124.77"/>
<polygon fill="red" stroke="red" points="360.55,-126.7 365.76,-123.06 359.42,-122.65 360.55,-126.7"/>
</a>
</g>
<text text-anchor="middle" x="157.5" y="-214.55" font-family="Helvetica,sans-Serif" font-size="9.00" fill="red">not&#45;to&#45;dev&#45;dep</text>
</g>
<!-- src/pages/index.tsx&#45;&gt;src/components/TagModal.tsx -->
<g id="edge19" class="edge">
<title>src/pages/index.tsx&#45;&gt;src/components/TagModal.tsx</title>
<path fill="none" stroke="#000000" stroke-width="2" stroke-opacity="0.200000" d="M96.17,-399.98C105.16,-403.37 114.78,-408.22 122,-415 127.8,-420.44 124.24,-425.52 130,-431 134.33,-435.12 139.55,-438.54 144.97,-441.37"/>
<polygon fill="#000000" fill-opacity="0.200000" stroke="#000000" stroke-width="2" stroke-opacity="0.200000" points="144.11,-443.28 150.43,-443.99 145.93,-439.5 144.11,-443.28"/>
</g>
<!-- src/pages/index.tsx&#45;&gt;src/services/useItemsGet.ts -->
<g id="edge25" class="edge">
<title>src/pages/index.tsx&#45;&gt;src/services/useItemsGet.ts</title>
<path fill="none" stroke="#000000" stroke-width="2" stroke-opacity="0.200000" d="M96.19,-397.98C105.87,-401.18 115.95,-406.43 122,-415 139.21,-439.36 110.21,-526.68 130,-549 223.2,-654.14 316.38,-612.21 446,-558 458.68,-552.7 470.64,-542.7 479.11,-534.43"/>
<polygon fill="#000000" fill-opacity="0.200000" stroke="#000000" stroke-width="2" stroke-opacity="0.200000" points="480.71,-535.8 483.44,-530.06 477.73,-532.84 480.71,-535.8"/>
</g>
<!-- src/services/sendActions.ts -->
<g id="node23" class="node">
<title>src/services/sendActions.ts</title>
<g id="a_node23"><a xlink:href="src/services/sendActions.ts" xlink:title="sendActions.ts">
<path fill="#ddfeff" stroke="black" d="M432,-552C432,-552 368,-552 368,-552 365,-552 362,-549 362,-546 362,-546 362,-540 362,-540 362,-537 365,-534 368,-534 368,-534 432,-534 432,-534 435,-534 438,-537 438,-540 438,-540 438,-546 438,-546 438,-549 435,-552 432,-552"/>
<text text-anchor="middle" x="400" y="-540.8" font-family="Helvetica,sans-Serif" font-size="9.00">sendActions.ts</text>
</a>
</g>
</g>
<!-- src/pages/index.tsx&#45;&gt;src/services/sendActions.ts -->
<g id="edge24" class="edge">
<title>src/pages/index.tsx&#45;&gt;src/services/sendActions.ts</title>
<path fill="none" stroke="#000000" stroke-width="2" stroke-opacity="0.200000" d="M96.12,-398.03C105.79,-401.25 115.87,-406.49 122,-415 135.54,-433.82 115.91,-500.6 130,-519 189.3,-596.46 249.37,-571.41 346,-558 352.74,-557.06 359.84,-555.49 366.56,-553.7"/>
<polygon fill="#000000" fill-opacity="0.200000" stroke="#000000" stroke-width="2" stroke-opacity="0.200000" points="367.4,-555.65 372.62,-552.01 366.27,-551.6 367.4,-555.65"/>
</g>
<!-- src/services/useItemsMutation.ts -->
<g id="node24" class="node">
<title>src/services/useItemsMutation.ts</title>
<g id="a_node24"><a xlink:href="src/services/useItemsMutation.ts" xlink:title="useItemsMutation.ts">
<path fill="#ddfeff" stroke="black" d="M340,-552C340,-552 254,-552 254,-552 251,-552 248,-549 248,-546 248,-546 248,-540 248,-540 248,-537 251,-534 254,-534 254,-534 340,-534 340,-534 343,-534 346,-537 346,-540 346,-540 346,-546 346,-546 346,-549 343,-552 340,-552"/>
<text text-anchor="middle" x="297" y="-540.8" font-family="Helvetica,sans-Serif" font-size="9.00">useItemsMutation.ts</text>
</a>
</g>
</g>
<!-- src/pages/index.tsx&#45;&gt;src/services/useItemsMutation.ts -->
<g id="edge26" class="edge">
<title>src/pages/index.tsx&#45;&gt;src/services/useItemsMutation.ts</title>
<path fill="none" stroke="#000000" stroke-width="2" stroke-opacity="0.200000" d="M96.27,-398.21C105.84,-401.44 115.81,-406.65 122,-415 142.22,-442.29 108.76,-464.5 130,-491 156.6,-524.19 204.18,-536.6 241.6,-541.05"/>
<polygon fill="#000000" fill-opacity="0.200000" stroke="#000000" stroke-width="2" stroke-opacity="0.200000" points="241.8,-543.18 247.99,-541.74 242.25,-539.01 241.8,-543.18"/>
</g>
<!-- src/services/sendActions.ts&#45;&gt;src/services/useItemsGet.ts -->
<g id="edge28" class="edge">
<title>src/services/sendActions.ts&#45;&gt;src/services/useItemsGet.ts</title>
<path fill="none" stroke="#000000" stroke-width="2" stroke-opacity="0.200000" d="M438.07,-533.99C441.51,-533.15 445.02,-532.3 448.5,-531.45"/>
<polygon fill="#000000" fill-opacity="0.200000" stroke="#000000" stroke-width="2" stroke-opacity="0.200000" points="449.01,-533.49 454.34,-530.03 448.01,-529.41 449.01,-533.49"/>
</g>
<!-- src/services/useItemsMutation.ts&#45;&gt;node_modules/ramda -->
<g id="edge32" class="edge">
<title>src/services/useItemsMutation.ts&#45;&gt;node_modules/ramda</title>
<path fill="none" stroke="#000000" stroke-opacity="0.200000" d="M338.69,-533.92C341.38,-532.26 343.87,-530.31 346,-528 356.83,-516.28 350.16,-508.49 354,-493 368.06,-436.33 386.56,-369.41 394.76,-340.07"/>
<polygon fill="#000000" fill-opacity="0.200000" stroke="#000000" stroke-opacity="0.200000" points="396.85,-340.42 396.44,-334.07 392.8,-339.29 396.85,-340.42"/>
</g>
<!-- src/services/useItemsMutation.ts&#45;&gt;node_modules/react&#45;query -->
<g id="edge33" class="edge">
<title>src/services/useItemsMutation.ts&#45;&gt;node_modules/react&#45;query</title>
<path fill="none" stroke="#000000" stroke-opacity="0.200000" d="M340.04,-533.74C342.28,-532.12 344.3,-530.22 346,-528 360.71,-508.74 339.47,-329.4 354,-310 356.33,-306.89 359.34,-304.41 362.69,-302.44"/>
<polygon fill="#000000" fill-opacity="0.200000" stroke="#000000" stroke-opacity="0.200000" points="363.72,-304.28 368.19,-299.75 361.87,-300.5 363.72,-304.28"/>
</g>
<!-- src/services/useItemsMutation.ts&#45;&gt;node_modules/ts&#45;essentials -->
<g id="edge34" class="edge">
<title>src/services/useItemsMutation.ts&#45;&gt;node_modules/ts&#45;essentials</title>
<g id="a_edge34"><a xlink:title="not&#45;to&#45;dev&#45;dep">
<path fill="none" stroke="red" d="M340.08,-533.78C342.31,-532.14 344.32,-530.23 346,-528 359.28,-510.31 340.89,-147.81 354,-130 355.8,-127.56 358.01,-125.51 360.48,-123.79"/>
<polygon fill="red" stroke="red" points="361.7,-125.51 365.85,-120.7 359.61,-121.87 361.7,-125.51"/>
</a>
</g>
<text text-anchor="middle" x="319.54" y="-320.18" font-family="Helvetica,sans-Serif" font-size="9.00" fill="red">not&#45;to&#45;dev&#45;dep</text>
</g>
<!-- src/services/useItemsMutation.ts&#45;&gt;src/services/useItemsGet.ts -->
<g id="edge31" class="edge">
<title>src/services/useItemsMutation.ts&#45;&gt;src/services/useItemsGet.ts</title>
<path fill="none" stroke="#000000" stroke-width="2" stroke-opacity="0.200000" d="M327.1,-533.96C335.69,-531.63 345.15,-529.39 354,-528 385.17,-523.09 420.76,-521.38 447.92,-520.88"/>
<polygon fill="#000000" fill-opacity="0.200000" stroke="#000000" stroke-width="2" stroke-opacity="0.200000" points="447.96,-522.98 453.93,-520.79 447.9,-518.78 447.96,-522.98"/>
</g>
<!-- src/services/useItemsMutation.ts&#45;&gt;src/services/sendActions.ts -->
<g id="edge30" class="edge">
<title>src/services/useItemsMutation.ts&#45;&gt;src/services/sendActions.ts</title>
<path fill="none" stroke="#000000" stroke-width="2" stroke-opacity="0.200000" d="M346.13,-543C349.27,-543 352.42,-543 355.53,-543"/>
<polygon fill="#000000" fill-opacity="0.200000" stroke="#000000" stroke-width="2" stroke-opacity="0.200000" points="355.86,-545.1 361.86,-543 355.86,-540.9 355.86,-545.1"/>
</g>
</g>
</svg>
