<?xml version="1.0" encoding="UTF-8" standalone="no"?>
<!DOCTYPE svg PUBLIC "-//W3C//DTD SVG 1.1//EN"
 "http://www.w3.org/Graphics/SVG/1.1/DTD/svg11.dtd">
<!-- Generated by graphviz version 2.43.0 (0)
 -->
<!-- Title: dependency&#45;cruiser output Pages: 1 -->
<svg width="565pt" height="494pt"
 viewBox="0.00 0.00 564.50 494.00" xmlns="http://www.w3.org/2000/svg" xmlns:xlink="http://www.w3.org/1999/xlink">
<g id="graph0" class="graph" transform="scale(1 1) rotate(0) translate(4 490)">
<title>dependency&#45;cruiser output</title>
<polygon fill="white" stroke="transparent" points="-4,4 -4,-490 560.5,-490 560.5,4 -4,4"/>
<g id="clust1" class="cluster">
<title>cluster_src</title>
<path fill="#ffffff" stroke="black" stroke-width="2" d="M20,-8C20,-8 536.5,-8 536.5,-8 542.5,-8 548.5,-14 548.5,-20 548.5,-20 548.5,-466 548.5,-466 548.5,-472 542.5,-478 536.5,-478 536.5,-478 20,-478 20,-478 14,-478 8,-472 8,-466 8,-466 8,-20 8,-20 8,-14 14,-8 20,-8"/>
<text text-anchor="middle" x="278.25" y="-466.8" font-family="Helvetica,sans-Serif" font-weight="bold" font-size="9.00">src</text>
</g>
<g id="clust2" class="cluster">
<title>cluster_src/components</title>
<path fill="#ffffff" stroke="black" stroke-width="2" d="M142,-146C142,-146 346.5,-146 346.5,-146 352.5,-146 358.5,-152 358.5,-158 358.5,-158 358.5,-276 358.5,-276 358.5,-282 352.5,-288 346.5,-288 346.5,-288 142,-288 142,-288 136,-288 130,-282 130,-276 130,-276 130,-158 130,-158 130,-152 136,-146 142,-146"/>
<text text-anchor="middle" x="244.25" y="-276.8" font-family="Helvetica,sans-Serif" font-weight="bold" font-size="9.00">components</text>
</g>
<g id="clust3" class="cluster">
<title>cluster_src/hooks</title>
<path fill="#ffffff" stroke="black" stroke-width="2" d="M467.5,-400C467.5,-400 523.5,-400 523.5,-400 529.5,-400 535.5,-406 535.5,-412 535.5,-412 535.5,-440 535.5,-440 535.5,-446 529.5,-452 523.5,-452 523.5,-452 467.5,-452 467.5,-452 461.5,-452 455.5,-446 455.5,-440 455.5,-440 455.5,-412 455.5,-412 455.5,-406 461.5,-400 467.5,-400"/>
<text text-anchor="middle" x="495.5" y="-440.8" font-family="Helvetica,sans-Serif" font-weight="bold" font-size="9.00">hooks</text>
</g>
<g id="clust4" class="cluster">
<title>cluster_src/pages</title>
<path fill="#ffffff" stroke="black" stroke-width="2" d="M28,-116C28,-116 110,-116 110,-116 116,-116 122,-122 122,-128 122,-128 122,-430 122,-430 122,-436 116,-442 110,-442 110,-442 28,-442 28,-442 22,-442 16,-436 16,-430 16,-430 16,-128 16,-128 16,-122 22,-116 28,-116"/>
<text text-anchor="middle" x="69" y="-430.8" font-family="Helvetica,sans-Serif" font-weight="bold" font-size="9.00">pages</text>
</g>
<g id="clust5" class="cluster">
<title>cluster_src/pages/api</title>
<path fill="#ffffff" stroke="black" stroke-width="2" d="M36,-210C36,-210 102,-210 102,-210 108,-210 114,-216 114,-222 114,-222 114,-404 114,-404 114,-410 108,-416 102,-416 102,-416 36,-416 36,-416 30,-416 24,-410 24,-404 24,-404 24,-222 24,-222 24,-216 30,-210 36,-210"/>
<text text-anchor="middle" x="69" y="-404.8" font-family="Helvetica,sans-Serif" font-weight="bold" font-size="9.00">api</text>
</g>
<g id="clust6" class="cluster">
<title>cluster_src/pages/api/auth</title>
<path fill="#ffffff" stroke="black" stroke-width="2" d="M46,-338C46,-338 92,-338 92,-338 98,-338 104,-344 104,-350 104,-350 104,-378 104,-378 104,-384 98,-390 92,-390 92,-390 46,-390 46,-390 40,-390 34,-384 34,-378 34,-378 34,-350 34,-350 34,-344 40,-338 46,-338"/>
<text text-anchor="middle" x="69" y="-378.8" font-family="Helvetica,sans-Serif" font-weight="bold" font-size="9.00">auth</text>
</g>
<g id="clust7" class="cluster">
<title>cluster_src/pages/api/items</title>
<path fill="#ffffff" stroke="black" stroke-width="2" d="M44,-218C44,-218 94,-218 94,-218 100,-218 106,-224 106,-230 106,-230 106,-318 106,-318 106,-324 100,-330 94,-330 94,-330 44,-330 44,-330 38,-330 32,-324 32,-318 32,-318 32,-230 32,-230 32,-224 38,-218 44,-218"/>
<text text-anchor="middle" x="69" y="-318.8" font-family="Helvetica,sans-Serif" font-weight="bold" font-size="9.00">items</text>
</g>
<g id="clust8" class="cluster">
<title>cluster_src/services</title>
<path fill="#ffffff" stroke="black" stroke-width="2" d="M261.5,-296C261.5,-296 528.5,-296 528.5,-296 534.5,-296 540.5,-302 540.5,-308 540.5,-308 540.5,-380 540.5,-380 540.5,-386 534.5,-392 528.5,-392 528.5,-392 261.5,-392 261.5,-392 255.5,-392 249.5,-386 249.5,-380 249.5,-380 249.5,-308 249.5,-308 249.5,-302 255.5,-296 261.5,-296"/>
<text text-anchor="middle" x="395" y="-380.8" font-family="Helvetica,sans-Serif" font-weight="bold" font-size="9.00">services</text>
</g>
<g id="clust9" class="cluster">
<title>cluster_src/styles</title>
<path fill="#ffffff" stroke="black" stroke-width="2" d="M144.5,-16C144.5,-16 229.5,-16 229.5,-16 235.5,-16 241.5,-22 241.5,-28 241.5,-28 241.5,-116 241.5,-116 241.5,-122 235.5,-128 229.5,-128 229.5,-128 144.5,-128 144.5,-128 138.5,-128 132.5,-122 132.5,-116 132.5,-116 132.5,-28 132.5,-28 132.5,-22 138.5,-16 144.5,-16"/>
<text text-anchor="middle" x="187" y="-116.8" font-family="Helvetica,sans-Serif" font-weight="bold" font-size="9.00">styles</text>
</g>
<!-- src/components/ActionButtons.tsx -->
<g id="node1" class="node">
<title>src/components/ActionButtons.tsx</title>
<g id="a_node1"><a xlink:href="src/components/ActionButtons.tsx" xlink:title="ActionButtons.tsx">
<path fill="#bbfeff" stroke="black" d="M343.5,-262C343.5,-262 269.5,-262 269.5,-262 266.5,-262 263.5,-259 263.5,-256 263.5,-256 263.5,-250 263.5,-250 263.5,-247 266.5,-244 269.5,-244 269.5,-244 343.5,-244 343.5,-244 346.5,-244 349.5,-247 349.5,-250 349.5,-250 349.5,-256 349.5,-256 349.5,-259 346.5,-262 343.5,-262"/>
<text text-anchor="middle" x="306.5" y="-250.8" font-family="Helvetica,sans-Serif" font-size="9.00">ActionButtons.tsx</text>
</a>
</g>
</g>
<!-- src/services/pocketApi.d.ts -->
<g id="node2" class="node">
<title>src/services/pocketApi.d.ts</title>
<g id="a_node2"><a xlink:href="src/services/pocketApi.d.ts" xlink:title="pocketApi.d.ts">
<path fill="#ddfeff" stroke="black" d="M526.5,-322C526.5,-322 464.5,-322 464.5,-322 461.5,-322 458.5,-319 458.5,-316 458.5,-316 458.5,-310 458.5,-310 458.5,-307 461.5,-304 464.5,-304 464.5,-304 526.5,-304 526.5,-304 529.5,-304 532.5,-307 532.5,-310 532.5,-310 532.5,-316 532.5,-316 532.5,-319 529.5,-322 526.5,-322"/>
<text text-anchor="middle" x="495.5" y="-310.8" font-family="Helvetica,sans-Serif" font-size="9.00">pocketApi.d.ts</text>
</a>
</g>
</g>
<!-- src/components/ActionButtons.tsx&#45;&gt;src/services/pocketApi.d.ts -->
<g id="edge1" class="edge">
<title>src/components/ActionButtons.tsx&#45;&gt;src/services/pocketApi.d.ts</title>
<path fill="none" stroke="#000000" stroke-width="2" stroke-opacity="0.200000" d="M335.9,-262.11C369.32,-272.84 424.76,-290.63 460.46,-302.08"/>
<polygon fill="#000000" fill-opacity="0.200000" stroke="#000000" stroke-width="2" stroke-opacity="0.200000" points="460.09,-304.16 466.44,-304 461.37,-300.17 460.09,-304.16"/>
</g>
<!-- src/components/ConfirmModal.tsx -->
<g id="node3" class="node">
<title>src/components/ConfirmModal.tsx</title>
<g id="a_node3"><a xlink:href="src/components/ConfirmModal.tsx" xlink:title="ConfirmModal.tsx">
<path fill="#bbfeff" stroke="black" d="M344.5,-232C344.5,-232 268.5,-232 268.5,-232 265.5,-232 262.5,-229 262.5,-226 262.5,-226 262.5,-220 262.5,-220 262.5,-217 265.5,-214 268.5,-214 268.5,-214 344.5,-214 344.5,-214 347.5,-214 350.5,-217 350.5,-220 350.5,-220 350.5,-226 350.5,-226 350.5,-229 347.5,-232 344.5,-232"/>
<text text-anchor="middle" x="306.5" y="-220.8" font-family="Helvetica,sans-Serif" font-size="9.00">ConfirmModal.tsx</text>
</a>
</g>
</g>
<!-- src/components/Item.tsx -->
<g id="node4" class="node">
<title>src/components/Item.tsx</title>
<g id="a_node4"><a xlink:href="src/components/Item.tsx" xlink:title="Item.tsx">
<path fill="#bbfeff" stroke="black" d="M208,-262C208,-262 166,-262 166,-262 163,-262 160,-259 160,-256 160,-256 160,-250 160,-250 160,-247 163,-244 166,-244 166,-244 208,-244 208,-244 211,-244 214,-247 214,-250 214,-250 214,-256 214,-256 214,-259 211,-262 208,-262"/>
<text text-anchor="middle" x="187" y="-250.8" font-family="Helvetica,sans-Serif" font-size="9.00">Item.tsx</text>
</a>
</g>
</g>
<!-- src/components/Item.tsx&#45;&gt;src/components/ActionButtons.tsx -->
<g id="edge3" class="edge">
<title>src/components/Item.tsx&#45;&gt;src/components/ActionButtons.tsx</title>
<path fill="none" stroke="#000000" stroke-width="2" stroke-opacity="0.200000" d="M214.08,-253C226.74,-253 242.37,-253 257.1,-253"/>
<polygon fill="#000000" fill-opacity="0.200000" stroke="#000000" stroke-width="2" stroke-opacity="0.200000" points="257.34,-255.1 263.34,-253 257.34,-250.9 257.34,-255.1"/>
</g>
<!-- src/components/Item.tsx&#45;&gt;src/services/pocketApi.d.ts -->
<g id="edge4" class="edge">
<title>src/components/Item.tsx&#45;&gt;src/services/pocketApi.d.ts</title>
<path fill="none" stroke="#000000" stroke-width="2" stroke-opacity="0.200000" d="M214.02,-251.84C224.09,-250.01 234.78,-246.09 241.5,-238 254.33,-222.55 234.69,-161.55 249.5,-148 267.37,-131.65 336.59,-137.67 358.5,-148 426.14,-179.9 471.55,-263.78 487.82,-298.07"/>
<polygon fill="#000000" fill-opacity="0.200000" stroke="#000000" stroke-width="2" stroke-opacity="0.200000" points="486.09,-299.32 490.52,-303.87 489.89,-297.54 486.09,-299.32"/>
</g>
<!-- src/components/Item.tsx&#45;&gt;src/components/ConfirmModal.tsx -->
<g id="edge2" class="edge">
<title>src/components/Item.tsx&#45;&gt;src/components/ConfirmModal.tsx</title>
<path fill="none" stroke="#000000" stroke-width="2" stroke-opacity="0.200000" d="M214.08,-246.34C228.77,-242.59 247.46,-237.82 264.11,-233.57"/>
<polygon fill="#000000" fill-opacity="0.200000" stroke="#000000" stroke-width="2" stroke-opacity="0.200000" points="264.84,-235.55 270.14,-232.03 263.8,-231.48 264.84,-235.55"/>
</g>
<!-- src/services/useItemsMutation.ts -->
<g id="node5" class="node">
<title>src/services/useItemsMutation.ts</title>
<g id="a_node5"><a xlink:href="src/services/useItemsMutation.ts" xlink:title="useItemsMutation.ts">
<path fill="#ddfeff" stroke="black" d="M349.5,-322C349.5,-322 263.5,-322 263.5,-322 260.5,-322 257.5,-319 257.5,-316 257.5,-316 257.5,-310 257.5,-310 257.5,-307 260.5,-304 263.5,-304 263.5,-304 349.5,-304 349.5,-304 352.5,-304 355.5,-307 355.5,-310 355.5,-310 355.5,-316 355.5,-316 355.5,-319 352.5,-322 349.5,-322"/>
<text text-anchor="middle" x="306.5" y="-310.8" font-family="Helvetica,sans-Serif" font-size="9.00">useItemsMutation.ts</text>
</a>
</g>
</g>
<!-- src/components/Item.tsx&#45;&gt;src/services/useItemsMutation.ts -->
<g id="edge5" class="edge">
<title>src/components/Item.tsx&#45;&gt;src/services/useItemsMutation.ts</title>
<path fill="none" stroke="#000000" stroke-width="2" stroke-opacity="0.200000" d="M201.28,-262.17C213.47,-270.36 232.21,-282.35 249.5,-291 257.17,-294.84 265.67,-298.47 273.7,-301.65"/>
<polygon fill="#000000" fill-opacity="0.200000" stroke="#000000" stroke-width="2" stroke-opacity="0.200000" points="273.36,-303.77 279.71,-303.98 274.88,-299.85 273.36,-303.77"/>
</g>
<!-- src/services/useItemsMutation.ts&#45;&gt;src/services/pocketApi.d.ts -->
<g id="edge24" class="edge">
<title>src/services/useItemsMutation.ts&#45;&gt;src/services/pocketApi.d.ts</title>
<path fill="none" stroke="#000000" stroke-width="2" stroke-opacity="0.200000" d="M355.78,-312.14C360.08,-312.08 364.37,-312.03 368.5,-312 402.72,-311.72 411.28,-311.65 445.5,-312 447.71,-312.02 449.99,-312.05 452.28,-312.08"/>
<polygon fill="#000000" fill-opacity="0.200000" stroke="#000000" stroke-width="2" stroke-opacity="0.200000" points="452.34,-314.18 458.38,-312.18 452.41,-309.99 452.34,-314.18"/>
</g>
<!-- src/services/sendActions.ts -->
<g id="node24" class="node">
<title>src/services/sendActions.ts</title>
<g id="a_node24"><a xlink:href="src/services/sendActions.ts" xlink:title="sendActions.ts">
<path fill="#ddfeff" stroke="black" d="M439,-336C439,-336 375,-336 375,-336 372,-336 369,-333 369,-330 369,-330 369,-324 369,-324 369,-321 372,-318 375,-318 375,-318 439,-318 439,-318 442,-318 445,-321 445,-324 445,-324 445,-330 445,-330 445,-333 442,-336 439,-336"/>
<text text-anchor="middle" x="407" y="-324.8" font-family="Helvetica,sans-Serif" font-size="9.00">sendActions.ts</text>
</a>
</g>
</g>
<!-- src/services/useItemsMutation.ts&#45;&gt;src/services/sendActions.ts -->
<g id="edge25" class="edge">
<title>src/services/useItemsMutation.ts&#45;&gt;src/services/sendActions.ts</title>
<path fill="none" stroke="#000000" stroke-width="2" stroke-opacity="0.200000" d="M355.6,-319.84C357.98,-320.18 360.37,-320.51 362.74,-320.85"/>
<polygon fill="#000000" fill-opacity="0.200000" stroke="#000000" stroke-width="2" stroke-opacity="0.200000" points="362.73,-322.97 368.96,-321.74 363.32,-318.81 362.73,-322.97"/>
</g>
<!-- src/components/ItemLoader.tsx -->
<g id="node6" class="node">
<title>src/components/ItemLoader.tsx</title>
<g id="a_node6"><a xlink:href="src/components/ItemLoader.tsx" xlink:title="ItemLoader.tsx">
<path fill="#bbfeff" stroke="black" d="M339,-202C339,-202 274,-202 274,-202 271,-202 268,-199 268,-196 268,-196 268,-190 268,-190 268,-187 271,-184 274,-184 274,-184 339,-184 339,-184 342,-184 345,-187 345,-190 345,-190 345,-196 345,-196 345,-199 342,-202 339,-202"/>
<text text-anchor="middle" x="306.5" y="-190.8" font-family="Helvetica,sans-Serif" font-size="9.00">ItemLoader.tsx</text>
</a>
</g>
</g>
<!-- src/components/ItemLoaderPage.tsx -->
<g id="node7" class="node">
<title>src/components/ItemLoaderPage.tsx</title>
<g id="a_node7"><a xlink:href="src/components/ItemLoaderPage.tsx" xlink:title="ItemLoaderPage.tsx">
<path fill="#bbfeff" stroke="black" d="M230,-232C230,-232 144,-232 144,-232 141,-232 138,-229 138,-226 138,-226 138,-220 138,-220 138,-217 141,-214 144,-214 144,-214 230,-214 230,-214 233,-214 236,-217 236,-220 236,-220 236,-226 236,-226 236,-229 233,-232 230,-232"/>
<text text-anchor="middle" x="187" y="-220.8" font-family="Helvetica,sans-Serif" font-size="9.00">ItemLoaderPage.tsx</text>
</a>
</g>
</g>
<!-- src/components/ItemLoaderPage.tsx&#45;&gt;src/components/ItemLoader.tsx -->
<g id="edge6" class="edge">
<title>src/components/ItemLoaderPage.tsx&#45;&gt;src/components/ItemLoader.tsx</title>
<path fill="none" stroke="#000000" stroke-width="2" stroke-opacity="0.200000" d="M223.25,-214C236.03,-210.74 250.59,-207.02 263.87,-203.63"/>
<polygon fill="#000000" fill-opacity="0.200000" stroke="#000000" stroke-width="2" stroke-opacity="0.200000" points="264.57,-205.62 269.86,-202.1 263.53,-201.55 264.57,-205.62"/>
</g>
<!-- src/components/SearchForm.tsx -->
<g id="node8" class="node">
<title>src/components/SearchForm.tsx</title>
<g id="a_node8"><a xlink:href="src/components/SearchForm.tsx" xlink:title="SearchForm.tsx">
<path fill="#bbfeff" stroke="black" d="M221,-172C221,-172 153,-172 153,-172 150,-172 147,-169 147,-166 147,-166 147,-160 147,-160 147,-157 150,-154 153,-154 153,-154 221,-154 221,-154 224,-154 227,-157 227,-160 227,-160 227,-166 227,-166 227,-169 224,-172 221,-172"/>
<text text-anchor="middle" x="187" y="-160.8" font-family="Helvetica,sans-Serif" font-size="9.00">SearchForm.tsx</text>
</a>
</g>
</g>
<!-- src/components/SearchForm.tsx&#45;&gt;src/services/pocketApi.d.ts -->
<g id="edge7" class="edge">
<title>src/components/SearchForm.tsx&#45;&gt;src/services/pocketApi.d.ts</title>
<path fill="none" stroke="#000000" stroke-width="2" stroke-opacity="0.200000" d="M222.37,-153.89C229.41,-150.74 236.25,-146.54 241.5,-141 248.94,-133.14 240.68,-124.27 249.5,-118 267.25,-105.38 428.46,-106.43 445.5,-120 473.61,-142.39 488.38,-255.68 492.94,-297.48"/>
<polygon fill="#000000" fill-opacity="0.200000" stroke="#000000" stroke-width="2" stroke-opacity="0.200000" points="490.86,-297.8 493.58,-303.55 495.04,-297.36 490.86,-297.8"/>
</g>
<!-- src/components/TagModal.tsx -->
<g id="node9" class="node">
<title>src/components/TagModal.tsx</title>
<g id="a_node9"><a xlink:href="src/components/TagModal.tsx" xlink:title="TagModal.tsx">
<path fill="#bbfeff" stroke="black" d="M216.5,-202C216.5,-202 157.5,-202 157.5,-202 154.5,-202 151.5,-199 151.5,-196 151.5,-196 151.5,-190 151.5,-190 151.5,-187 154.5,-184 157.5,-184 157.5,-184 216.5,-184 216.5,-184 219.5,-184 222.5,-187 222.5,-190 222.5,-190 222.5,-196 222.5,-196 222.5,-199 219.5,-202 216.5,-202"/>
<text text-anchor="middle" x="187" y="-190.8" font-family="Helvetica,sans-Serif" font-size="9.00">TagModal.tsx</text>
</a>
</g>
</g>
<!-- src/components/TagModal.tsx&#45;&gt;src/services/pocketApi.d.ts -->
<g id="edge9" class="edge">
<title>src/components/TagModal.tsx&#45;&gt;src/services/pocketApi.d.ts</title>
<path fill="none" stroke="#000000" stroke-width="2" stroke-opacity="0.200000" d="M222.56,-189.31C229.67,-187.04 236.5,-183.49 241.5,-178 254.88,-163.3 234.24,-146.74 249.5,-134 283.05,-106 412.95,-120.85 445.5,-150 489.07,-189.02 494.56,-265.13 494.81,-297.66"/>
<polygon fill="#000000" fill-opacity="0.200000" stroke="#000000" stroke-width="2" stroke-opacity="0.200000" points="492.71,-297.91 494.79,-303.91 496.91,-297.92 492.71,-297.91"/>
</g>
<!-- src/components/TagSelector.tsx -->
<g id="node10" class="node">
<title>src/components/TagSelector.tsx</title>
<g id="a_node10"><a xlink:href="src/components/TagSelector.tsx" xlink:title="TagSelector.tsx">
<path fill="#bbfeff" stroke="black" d="M340,-172C340,-172 273,-172 273,-172 270,-172 267,-169 267,-166 267,-166 267,-160 267,-160 267,-157 270,-154 273,-154 273,-154 340,-154 340,-154 343,-154 346,-157 346,-160 346,-160 346,-166 346,-166 346,-169 343,-172 340,-172"/>
<text text-anchor="middle" x="306.5" y="-160.8" font-family="Helvetica,sans-Serif" font-size="9.00">TagSelector.tsx</text>
</a>
</g>
</g>
<!-- src/components/TagModal.tsx&#45;&gt;src/components/TagSelector.tsx -->
<g id="edge8" class="edge">
<title>src/components/TagModal.tsx&#45;&gt;src/components/TagSelector.tsx</title>
<path fill="none" stroke="#000000" stroke-width="2" stroke-opacity="0.200000" d="M222.62,-184.16C235.53,-180.86 250.33,-177.09 263.82,-173.64"/>
<polygon fill="#000000" fill-opacity="0.200000" stroke="#000000" stroke-width="2" stroke-opacity="0.200000" points="264.61,-175.61 269.91,-172.09 263.57,-171.54 264.61,-175.61"/>
</g>
<!-- src/hooks/useNotify.ts -->
<g id="node11" class="node">
<title>src/hooks/useNotify.ts</title>
<g id="a_node11"><a xlink:href="src/hooks/useNotify.ts" xlink:title="useNotify.ts">
<path fill="#ddfeff" stroke="black" d="M521.5,-426C521.5,-426 469.5,-426 469.5,-426 466.5,-426 463.5,-423 463.5,-420 463.5,-420 463.5,-414 463.5,-414 463.5,-411 466.5,-408 469.5,-408 469.5,-408 521.5,-408 521.5,-408 524.5,-408 527.5,-411 527.5,-414 527.5,-414 527.5,-420 527.5,-420 527.5,-423 524.5,-426 521.5,-426"/>
<text text-anchor="middle" x="495.5" y="-414.8" font-family="Helvetica,sans-Serif" font-size="9.00">useNotify.ts</text>
</a>
</g>
</g>
<!-- src/pages/_app.tsx -->
<g id="node12" class="node">
<title>src/pages/_app.tsx</title>
<g id="a_node12"><a xlink:href="src/pages/_app.tsx" xlink:title="_app.tsx">
<path fill="#bbfeff" stroke="black" d="M90,-142C90,-142 48,-142 48,-142 45,-142 42,-139 42,-136 42,-136 42,-130 42,-130 42,-127 45,-124 48,-124 48,-124 90,-124 90,-124 93,-124 96,-127 96,-130 96,-130 96,-136 96,-136 96,-139 93,-142 90,-142"/>
<text text-anchor="middle" x="69" y="-130.8" font-family="Helvetica,sans-Serif" font-size="9.00">_app.tsx</text>
</a>
</g>
</g>
<!-- src/styles/app.scss -->
<g id="node13" class="node">
<title>src/styles/app.scss</title>
<g id="a_node13"><a xlink:href="src/styles/app.scss" xlink:title="app.scss">
<path fill="#ffffcc" stroke="black" d="M208,-72C208,-72 166,-72 166,-72 163,-72 160,-69 160,-66 160,-66 160,-60 160,-60 160,-57 163,-54 166,-54 166,-54 208,-54 208,-54 211,-54 214,-57 214,-60 214,-60 214,-66 214,-66 214,-69 211,-72 208,-72"/>
<text text-anchor="middle" x="187" y="-60.8" font-family="Helvetica,sans-Serif" font-size="9.00">app.scss</text>
</a>
</g>
</g>
<!-- src/pages/_app.tsx&#45;&gt;src/styles/app.scss -->
<g id="edge10" class="edge">
<title>src/pages/_app.tsx&#45;&gt;src/styles/app.scss</title>
<path fill="none" stroke="#000000" stroke-width="2" stroke-opacity="0.200000" d="M77.53,-123.75C88.01,-111.47 108.2,-89.96 130,-78 137.31,-73.99 145.76,-71 153.84,-68.8"/>
<polygon fill="#000000" fill-opacity="0.200000" stroke="#000000" stroke-width="2" stroke-opacity="0.200000" points="154.62,-70.77 159.92,-67.26 153.59,-66.69 154.62,-70.77"/>
</g>
<!-- src/styles/react&#45;mention.scss -->
<g id="node14" class="node">
<title>src/styles/react&#45;mention.scss</title>
<g id="a_node14"><a xlink:href="src/styles/react-mention.scss" xlink:title="react&#45;mention.scss">
<path fill="#ffffcc" stroke="black" d="M227.5,-42C227.5,-42 146.5,-42 146.5,-42 143.5,-42 140.5,-39 140.5,-36 140.5,-36 140.5,-30 140.5,-30 140.5,-27 143.5,-24 146.5,-24 146.5,-24 227.5,-24 227.5,-24 230.5,-24 233.5,-27 233.5,-30 233.5,-30 233.5,-36 233.5,-36 233.5,-39 230.5,-42 227.5,-42"/>
<text text-anchor="middle" x="187" y="-30.8" font-family="Helvetica,sans-Serif" font-size="9.00">react&#45;mention.scss</text>
</a>
</g>
</g>
<!-- src/pages/_app.tsx&#45;&gt;src/styles/react&#45;mention.scss -->
<g id="edge11" class="edge">
<title>src/pages/_app.tsx&#45;&gt;src/styles/react&#45;mention.scss</title>
<path fill="none" stroke="#000000" stroke-width="2" stroke-opacity="0.200000" d="M73.8,-123.98C81.62,-106.52 101.26,-68.04 130,-48 131.65,-46.85 133.39,-45.79 135.18,-44.8"/>
<polygon fill="#000000" fill-opacity="0.200000" stroke="#000000" stroke-width="2" stroke-opacity="0.200000" points="136.26,-46.62 140.73,-42.1 134.41,-42.84 136.26,-46.62"/>
</g>
<!-- src/styles/TagSelector.scss -->
<g id="node15" class="node">
<title>src/styles/TagSelector.scss</title>
<g id="a_node15"><a xlink:href="src/styles/TagSelector.scss" xlink:title="TagSelector.scss">
<path fill="#ffffcc" stroke="black" d="M224,-102C224,-102 150,-102 150,-102 147,-102 144,-99 144,-96 144,-96 144,-90 144,-90 144,-87 147,-84 150,-84 150,-84 224,-84 224,-84 227,-84 230,-87 230,-90 230,-90 230,-96 230,-96 230,-99 227,-102 224,-102"/>
<text text-anchor="middle" x="187" y="-90.8" font-family="Helvetica,sans-Serif" font-size="9.00">TagSelector.scss</text>
</a>
</g>
</g>
<!-- src/pages/_app.tsx&#45;&gt;src/styles/TagSelector.scss -->
<g id="edge12" class="edge">
<title>src/pages/_app.tsx&#45;&gt;src/styles/TagSelector.scss</title>
<path fill="none" stroke="#000000" stroke-width="2" stroke-opacity="0.200000" d="M96.03,-124.02C113.08,-118.15 135.48,-110.42 153.66,-104.15"/>
<polygon fill="#000000" fill-opacity="0.200000" stroke="#000000" stroke-width="2" stroke-opacity="0.200000" points="154.67,-106.03 159.65,-102.09 153.3,-102.06 154.67,-106.03"/>
</g>
<!-- src/pages/_document.tsx -->
<g id="node16" class="node">
<title>src/pages/_document.tsx</title>
<g id="a_node16"><a xlink:href="src/pages/_document.tsx" xlink:title="no&#45;orphans">
<path fill="#ccffcc" stroke="orange" d="M101,-172C101,-172 37,-172 37,-172 34,-172 31,-169 31,-166 31,-166 31,-160 31,-160 31,-157 34,-154 37,-154 37,-154 101,-154 101,-154 104,-154 107,-157 107,-160 107,-160 107,-166 107,-166 107,-169 104,-172 101,-172"/>
<text text-anchor="middle" x="69" y="-160.8" font-family="Helvetica,sans-Serif" font-size="9.00" fill="orange">_document.tsx</text>
</a>
</g>
</g>
<!-- src/pages/api/auth/pocket.ts -->
<g id="node17" class="node">
<title>src/pages/api/auth/pocket.ts</title>
<g id="a_node17"><a xlink:href="src/pages/api/auth/pocket.ts" xlink:title="no&#45;orphans">
<path fill="#ccffcc" stroke="orange" d="M90,-364C90,-364 48,-364 48,-364 45,-364 42,-361 42,-358 42,-358 42,-352 42,-352 42,-349 45,-346 48,-346 48,-346 90,-346 90,-346 93,-346 96,-349 96,-352 96,-352 96,-358 96,-358 96,-361 93,-364 90,-364"/>
<text text-anchor="middle" x="69" y="-352.8" font-family="Helvetica,sans-Serif" font-size="9.00" fill="orange">pocket.ts</text>
</a>
</g>
</g>
<!-- src/pages/api/items/get.ts -->
<g id="node18" class="node">
<title>src/pages/api/items/get.ts</title>
<g id="a_node18"><a xlink:href="src/pages/api/items/get.ts" xlink:title="no&#45;orphans">
<path fill="#ccffcc" stroke="orange" d="M90,-304C90,-304 48,-304 48,-304 45,-304 42,-301 42,-298 42,-298 42,-292 42,-292 42,-289 45,-286 48,-286 48,-286 90,-286 90,-286 93,-286 96,-289 96,-292 96,-292 96,-298 96,-298 96,-301 93,-304 90,-304"/>
<text text-anchor="middle" x="69" y="-292.8" font-family="Helvetica,sans-Serif" font-size="9.00" fill="orange">get.ts</text>
</a>
</g>
</g>
<!-- src/pages/api/items/getTags.ts -->
<g id="node19" class="node">
<title>src/pages/api/items/getTags.ts</title>
<g id="a_node19"><a xlink:href="src/pages/api/items/getTags.ts" xlink:title="no&#45;orphans">
<path fill="#ccffcc" stroke="orange" d="M92,-274C92,-274 46,-274 46,-274 43,-274 40,-271 40,-268 40,-268 40,-262 40,-262 40,-259 43,-256 46,-256 46,-256 92,-256 92,-256 95,-256 98,-259 98,-262 98,-262 98,-268 98,-268 98,-271 95,-274 92,-274"/>
<text text-anchor="middle" x="69" y="-262.8" font-family="Helvetica,sans-Serif" font-size="9.00" fill="orange">getTags.ts</text>
</a>
</g>
</g>
<!-- src/pages/api/items/send.ts -->
<g id="node20" class="node">
<title>src/pages/api/items/send.ts</title>
<g id="a_node20"><a xlink:href="src/pages/api/items/send.ts" xlink:title="no&#45;orphans">
<path fill="#ccffcc" stroke="orange" d="M90,-244C90,-244 48,-244 48,-244 45,-244 42,-241 42,-238 42,-238 42,-232 42,-232 42,-229 45,-226 48,-226 48,-226 90,-226 90,-226 93,-226 96,-229 96,-232 96,-232 96,-238 96,-238 96,-241 93,-244 90,-244"/>
<text text-anchor="middle" x="69" y="-232.8" font-family="Helvetica,sans-Serif" font-size="9.00" fill="orange">send.ts</text>
</a>
</g>
</g>
<!-- src/pages/index.tsx -->
<g id="node21" class="node">
<title>src/pages/index.tsx</title>
<g id="a_node21"><a xlink:href="src/pages/index.tsx" xlink:title="index.tsx">
<path fill="#bbfeff" stroke="black" d="M90,-202C90,-202 48,-202 48,-202 45,-202 42,-199 42,-196 42,-196 42,-190 42,-190 42,-187 45,-184 48,-184 48,-184 90,-184 90,-184 93,-184 96,-187 96,-190 96,-190 96,-196 96,-196 96,-199 93,-202 90,-202"/>
<text text-anchor="middle" x="69" y="-190.8" font-family="Helvetica,sans-Serif" font-size="9.00">index.tsx</text>
</a>
</g>
</g>
<!-- src/pages/index.tsx&#45;&gt;src/services/pocketApi.d.ts -->
<g id="edge17" class="edge">
<title>src/pages/index.tsx&#45;&gt;src/services/pocketApi.d.ts</title>
<path fill="none" stroke="#000000" stroke-width="2" stroke-opacity="0.200000" d="M96.13,-190.93C105.45,-188.91 115.29,-185.1 122,-178 132.96,-166.4 118.07,-153.6 130,-143 167.25,-109.89 202.87,-162.5 241.5,-131 250.54,-123.63 240.08,-112.88 249.5,-106 319.86,-54.64 377.18,-51.96 445.5,-106 475.94,-130.08 489.43,-254.18 493.28,-297.81"/>
<polygon fill="#000000" fill-opacity="0.200000" stroke="#000000" stroke-width="2" stroke-opacity="0.200000" points="491.19,-298.07 493.8,-303.87 495.38,-297.71 491.19,-298.07"/>
</g>
<!-- src/pages/index.tsx&#45;&gt;src/components/Item.tsx -->
<g id="edge13" class="edge">
<title>src/pages/index.tsx&#45;&gt;src/components/Item.tsx</title>
<path fill="none" stroke="#000000" stroke-width="2" stroke-opacity="0.200000" d="M96.12,-199.28C105.33,-202.63 115.1,-207.63 122,-215 129.4,-222.9 122.07,-230.63 130,-238 136.53,-244.07 145.24,-247.73 153.85,-249.93"/>
<polygon fill="#000000" fill-opacity="0.200000" stroke="#000000" stroke-width="2" stroke-opacity="0.200000" points="153.45,-251.99 159.76,-251.23 154.35,-247.89 153.45,-251.99"/>
</g>
<!-- src/pages/index.tsx&#45;&gt;src/services/useItemsMutation.ts -->
<g id="edge19" class="edge">
<title>src/pages/index.tsx&#45;&gt;src/services/useItemsMutation.ts</title>
<path fill="none" stroke="#000000" stroke-width="2" stroke-opacity="0.200000" d="M96.27,-198.21C105.84,-201.44 115.81,-206.65 122,-215 132.11,-228.64 118.11,-278.87 130,-291 160.71,-322.33 211.8,-325.54 250.96,-322.26"/>
<polygon fill="#000000" fill-opacity="0.200000" stroke="#000000" stroke-width="2" stroke-opacity="0.200000" points="251.35,-324.33 257.13,-321.68 250.96,-320.15 251.35,-324.33"/>
</g>
<!-- src/pages/index.tsx&#45;&gt;src/components/ItemLoaderPage.tsx -->
<g id="edge14" class="edge">
<title>src/pages/index.tsx&#45;&gt;src/components/ItemLoaderPage.tsx</title>
<path fill="none" stroke="#000000" stroke-width="2" stroke-opacity="0.200000" d="M96.03,-199.73C110.43,-203.46 128.65,-208.17 144.92,-212.38"/>
<polygon fill="#000000" fill-opacity="0.200000" stroke="#000000" stroke-width="2" stroke-opacity="0.200000" points="144.48,-214.43 150.82,-213.9 145.53,-210.37 144.48,-214.43"/>
</g>
<!-- src/pages/index.tsx&#45;&gt;src/components/SearchForm.tsx -->
<g id="edge15" class="edge">
<title>src/pages/index.tsx&#45;&gt;src/components/SearchForm.tsx</title>
<path fill="none" stroke="#000000" stroke-width="2" stroke-opacity="0.200000" d="M96.03,-186.27C110.43,-182.54 128.65,-177.83 144.92,-173.62"/>
<polygon fill="#000000" fill-opacity="0.200000" stroke="#000000" stroke-width="2" stroke-opacity="0.200000" points="145.53,-175.63 150.82,-172.1 144.48,-171.57 145.53,-175.63"/>
</g>
<!-- src/pages/index.tsx&#45;&gt;src/components/TagModal.tsx -->
<g id="edge16" class="edge">
<title>src/pages/index.tsx&#45;&gt;src/components/TagModal.tsx</title>
<path fill="none" stroke="#000000" stroke-width="2" stroke-opacity="0.200000" d="M96.03,-193C110.42,-193 128.63,-193 144.89,-193"/>
<polygon fill="#000000" fill-opacity="0.200000" stroke="#000000" stroke-width="2" stroke-opacity="0.200000" points="145.25,-195.1 151.25,-193 145.25,-190.9 145.25,-195.1"/>
</g>
<!-- src/services/useItemsGet.ts -->
<g id="node22" class="node">
<title>src/services/useItemsGet.ts</title>
<g id="a_node22"><a xlink:href="src/services/useItemsGet.ts" xlink:title="useItemsGet.ts">
<path fill="#ddfeff" stroke="black" d="M439.5,-366C439.5,-366 374.5,-366 374.5,-366 371.5,-366 368.5,-363 368.5,-360 368.5,-360 368.5,-354 368.5,-354 368.5,-351 371.5,-348 374.5,-348 374.5,-348 439.5,-348 439.5,-348 442.5,-348 445.5,-351 445.5,-354 445.5,-354 445.5,-360 445.5,-360 445.5,-363 442.5,-366 439.5,-366"/>
<text text-anchor="middle" x="407" y="-354.8" font-family="Helvetica,sans-Serif" font-size="9.00">useItemsGet.ts</text>
</a>
</g>
</g>
<!-- src/pages/index.tsx&#45;&gt;src/services/useItemsGet.ts -->
<g id="edge18" class="edge">
<title>src/pages/index.tsx&#45;&gt;src/services/useItemsGet.ts</title>
<path fill="none" stroke="#000000" stroke-width="2" stroke-opacity="0.200000" d="M96.16,-198C105.83,-201.21 115.92,-206.46 122,-215 137.37,-236.59 112.53,-314.07 130,-334 189.3,-401.63 309.32,-382.7 369.65,-367.6"/>
<polygon fill="#000000" fill-opacity="0.200000" stroke="#000000" stroke-width="2" stroke-opacity="0.200000" points="370.36,-369.59 375.65,-366.07 369.31,-365.52 370.36,-369.59"/>
</g>
<!-- src/services/useTagGet.ts -->
<g id="node23" class="node">
<title>src/services/useTagGet.ts</title>
<g id="a_node23"><a xlink:href="src/services/useTagGet.ts" xlink:title="useTagGet.ts">
<path fill="#ddfeff" stroke="black" d="M335.5,-352C335.5,-352 277.5,-352 277.5,-352 274.5,-352 271.5,-349 271.5,-346 271.5,-346 271.5,-340 271.5,-340 271.5,-337 274.5,-334 277.5,-334 277.5,-334 335.5,-334 335.5,-334 338.5,-334 341.5,-337 341.5,-340 341.5,-340 341.5,-346 341.5,-346 341.5,-349 338.5,-352 335.5,-352"/>
<text text-anchor="middle" x="306.5" y="-340.8" font-family="Helvetica,sans-Serif" font-size="9.00">useTagGet.ts</text>
</a>
</g>
</g>
<!-- src/pages/index.tsx&#45;&gt;src/services/useTagGet.ts -->
<g id="edge20" class="edge">
<title>src/pages/index.tsx&#45;&gt;src/services/useTagGet.ts</title>
<path fill="none" stroke="#000000" stroke-width="2" stroke-opacity="0.200000" d="M96.09,-198.05C105.75,-201.27 115.85,-206.51 122,-215 134.56,-232.34 115.62,-295.15 130,-311 163.65,-348.09 224.81,-351.09 265.3,-348.27"/>
<polygon fill="#000000" fill-opacity="0.200000" stroke="#000000" stroke-width="2" stroke-opacity="0.200000" points="265.55,-350.36 271.37,-347.79 265.22,-346.17 265.55,-350.36"/>
</g>
<!-- src/services/useItemsGet.ts&#45;&gt;src/services/pocketApi.d.ts -->
<g id="edge22" class="edge">
<title>src/services/useItemsGet.ts&#45;&gt;src/services/pocketApi.d.ts</title>
<path fill="none" stroke="#000000" stroke-width="2" stroke-opacity="0.200000" d="M432.45,-347.85C436.84,-346.03 441.35,-344.04 445.5,-342 455.49,-337.08 466.17,-330.88 475.01,-325.47"/>
<polygon fill="#000000" fill-opacity="0.200000" stroke="#000000" stroke-width="2" stroke-opacity="0.200000" points="476.25,-327.17 480.24,-322.23 474.04,-323.6 476.25,-327.17"/>
</g>
<!-- src/services/useItemsGet.ts&#45;&gt;src/hooks/useNotify.ts -->
<g id="edge23" class="edge">
<title>src/services/useItemsGet.ts&#45;&gt;src/hooks/useNotify.ts</title>
<path fill="none" stroke="#000000" stroke-width="2" stroke-opacity="0.200000" d="M418.56,-366.27C427.95,-374.3 442.2,-386.01 455.5,-395 460.62,-398.46 466.32,-401.89 471.75,-404.98"/>
<polygon fill="#000000" fill-opacity="0.200000" stroke="#000000" stroke-width="2" stroke-opacity="0.200000" points="470.79,-406.85 477.05,-407.94 472.84,-403.18 470.79,-406.85"/>
</g>
<!-- src/services/sendActions.ts&#45;&gt;src/services/pocketApi.d.ts -->
<g id="edge21" class="edge">
<title>src/services/sendActions.ts&#45;&gt;src/services/pocketApi.d.ts</title>
<path fill="none" stroke="#000000" stroke-width="2" stroke-opacity="0.200000" d="M445.19,-320.98C447.52,-320.6 449.88,-320.22 452.24,-319.84"/>
<polygon fill="#000000" fill-opacity="0.200000" stroke="#000000" stroke-width="2" stroke-opacity="0.200000" points="452.86,-321.87 458.44,-318.84 452.18,-317.72 452.86,-321.87"/>
</g>
</g>
</svg>
